<svg width="1408" height="964" viewBox="0 0 1408 964" fill="none" xmlns="http://www.w3.org/2000/svg">
<path d="M0 67H1350V914C1350 933.33 1334.33 949 1315 949H35C15.67 949 0 933.33 0 914V67Z" fill="url(#paint0_linear_1_10)"/>
<g filter="url(#filter0_d_1_10)">
<rect x="420" y="173" width="840" height="571" rx="10" fill="url(#paint1_linear_1_10)"/>
</g>
<path d="M466.034 257V222.091H473.415V236.494H488.398V222.091H495.761V257H488.398V242.58H473.415V257H466.034ZM499.79 257V230.818H507.052V257H499.79ZM503.438 227.443C502.358 227.443 501.432 227.085 500.66 226.369C499.898 225.642 499.518 224.773 499.518 223.761C499.518 222.761 499.898 221.903 500.66 221.188C501.432 220.46 502.358 220.097 503.438 220.097C504.518 220.097 505.438 220.46 506.199 221.188C506.972 221.903 507.358 222.761 507.358 223.761C507.358 224.773 506.972 225.642 506.199 226.369C505.438 227.085 504.518 227.443 503.438 227.443ZM519.624 222.091L518.96 246.534H512.721L512.039 222.091H519.624ZM515.84 257.443C514.715 257.443 513.749 257.045 512.943 256.25C512.136 255.443 511.738 254.477 511.749 253.352C511.738 252.239 512.136 251.284 512.943 250.489C513.749 249.693 514.715 249.295 515.84 249.295C516.92 249.295 517.869 249.693 518.687 250.489C519.505 251.284 519.92 252.239 519.931 253.352C519.92 254.102 519.721 254.79 519.335 255.415C518.96 256.028 518.465 256.523 517.852 256.898C517.238 257.261 516.568 257.443 515.84 257.443ZM541.297 222.091V257H533.917V222.091H541.297ZM551.399 222.091V225.773C551.399 226.818 551.194 227.886 550.785 228.977C550.387 230.057 549.853 231.08 549.183 232.045C548.512 233 547.779 233.812 546.984 234.483L543.779 232.591C544.347 231.693 544.847 230.699 545.279 229.608C545.722 228.517 545.944 227.25 545.944 225.807V222.091H551.399ZM553.284 257V230.818H560.204V235.438H560.511C561.057 233.903 561.966 232.693 563.239 231.807C564.511 230.92 566.034 230.477 567.807 230.477C569.602 230.477 571.131 230.926 572.392 231.824C573.653 232.71 574.494 233.915 574.915 235.438H575.187C575.721 233.938 576.687 232.739 578.085 231.841C579.494 230.932 581.159 230.477 583.079 230.477C585.523 230.477 587.506 231.256 589.028 232.812C590.562 234.358 591.329 236.551 591.329 239.392V257H584.085V240.824C584.085 239.369 583.699 238.278 582.926 237.551C582.153 236.824 581.187 236.46 580.028 236.46C578.71 236.46 577.682 236.881 576.943 237.722C576.204 238.551 575.835 239.648 575.835 241.011V257H568.795V240.67C568.795 239.386 568.426 238.364 567.687 237.602C566.96 236.841 566 236.46 564.807 236.46C564 236.46 563.273 236.665 562.625 237.074C561.989 237.472 561.483 238.034 561.108 238.761C560.733 239.477 560.545 240.318 560.545 241.284V257H553.284ZM611.801 257.494C610.13 257.494 608.641 257.205 607.335 256.625C606.028 256.034 604.994 255.165 604.232 254.017C603.482 252.858 603.107 251.415 603.107 249.688C603.107 248.233 603.374 247.011 603.908 246.023C604.443 245.034 605.17 244.239 606.09 243.636C607.011 243.034 608.056 242.58 609.227 242.273C610.408 241.966 611.647 241.75 612.943 241.625C614.465 241.466 615.693 241.318 616.624 241.182C617.556 241.034 618.232 240.818 618.653 240.534C619.073 240.25 619.283 239.83 619.283 239.273V239.17C619.283 238.091 618.943 237.256 618.261 236.665C617.59 236.074 616.636 235.778 615.397 235.778C614.09 235.778 613.051 236.068 612.278 236.648C611.505 237.216 610.994 237.932 610.744 238.795L604.028 238.25C604.369 236.659 605.039 235.284 606.039 234.125C607.039 232.955 608.329 232.057 609.908 231.432C611.499 230.795 613.34 230.477 615.431 230.477C616.886 230.477 618.278 230.648 619.607 230.989C620.948 231.33 622.136 231.858 623.17 232.574C624.215 233.29 625.039 234.21 625.641 235.335C626.244 236.449 626.545 237.784 626.545 239.341V257H619.658V253.369H619.454C619.033 254.188 618.471 254.909 617.766 255.534C617.062 256.148 616.215 256.631 615.227 256.983C614.238 257.324 613.096 257.494 611.801 257.494ZM613.88 252.483C614.948 252.483 615.891 252.273 616.71 251.852C617.528 251.42 618.17 250.841 618.636 250.114C619.102 249.386 619.335 248.562 619.335 247.642V244.864C619.107 245.011 618.795 245.148 618.397 245.273C618.011 245.386 617.573 245.494 617.085 245.597C616.596 245.687 616.107 245.773 615.619 245.852C615.13 245.92 614.687 245.983 614.289 246.04C613.437 246.165 612.693 246.364 612.056 246.636C611.42 246.909 610.926 247.278 610.573 247.744C610.221 248.199 610.045 248.767 610.045 249.449C610.045 250.438 610.403 251.193 611.119 251.716C611.846 252.227 612.766 252.483 613.88 252.483ZM661.232 238.284L654.584 238.693C654.47 238.125 654.226 237.614 653.851 237.159C653.476 236.693 652.982 236.324 652.368 236.051C651.766 235.767 651.044 235.625 650.203 235.625C649.078 235.625 648.13 235.864 647.357 236.341C646.584 236.807 646.198 237.432 646.198 238.216C646.198 238.841 646.448 239.369 646.948 239.801C647.448 240.233 648.306 240.58 649.522 240.841L654.26 241.795C656.806 242.318 658.703 243.159 659.953 244.318C661.203 245.477 661.828 247 661.828 248.886C661.828 250.602 661.323 252.108 660.311 253.403C659.311 254.699 657.936 255.71 656.186 256.438C654.448 257.153 652.442 257.511 650.169 257.511C646.703 257.511 643.942 256.79 641.885 255.347C639.84 253.892 638.641 251.915 638.289 249.415L645.431 249.04C645.647 250.097 646.169 250.903 646.999 251.46C647.828 252.006 648.891 252.278 650.186 252.278C651.459 252.278 652.482 252.034 653.255 251.545C654.039 251.045 654.436 250.403 654.448 249.619C654.436 248.96 654.158 248.42 653.613 248C653.067 247.568 652.226 247.239 651.09 247.011L646.556 246.108C643.999 245.597 642.095 244.71 640.845 243.449C639.607 242.187 638.988 240.58 638.988 238.625C638.988 236.943 639.442 235.494 640.351 234.278C641.272 233.062 642.561 232.125 644.22 231.466C645.891 230.807 647.845 230.477 650.084 230.477C653.391 230.477 655.993 231.176 657.891 232.574C659.8 233.972 660.914 235.875 661.232 238.284ZM671.742 222.091V257H664.481V222.091H671.742ZM675.639 257V230.818H682.9V257H675.639ZM679.287 227.443C678.207 227.443 677.281 227.085 676.508 226.369C675.747 225.642 675.366 224.773 675.366 223.761C675.366 222.761 675.747 221.903 676.508 221.188C677.281 220.46 678.207 220.097 679.287 220.097C680.366 220.097 681.287 220.46 682.048 221.188C682.821 221.903 683.207 222.761 683.207 223.761C683.207 224.773 682.821 225.642 682.048 226.369C681.287 227.085 680.366 227.443 679.287 227.443ZM696.445 257.426C694.456 257.426 692.655 256.915 691.041 255.892C689.439 254.858 688.166 253.341 687.223 251.341C686.291 249.33 685.826 246.864 685.826 243.943C685.826 240.943 686.308 238.449 687.274 236.46C688.24 234.46 689.524 232.966 691.127 231.977C692.74 230.977 694.507 230.477 696.428 230.477C697.894 230.477 699.115 230.727 700.093 231.227C701.081 231.716 701.877 232.33 702.479 233.068C703.093 233.795 703.558 234.511 703.877 235.216H704.098V222.091H711.343V257H704.183V252.807H703.877C703.536 253.534 703.053 254.256 702.428 254.972C701.814 255.676 701.013 256.261 700.024 256.727C699.047 257.193 697.854 257.426 696.445 257.426ZM698.746 251.648C699.916 251.648 700.905 251.33 701.712 250.693C702.53 250.045 703.155 249.142 703.587 247.983C704.03 246.824 704.252 245.466 704.252 243.909C704.252 242.352 704.036 241 703.604 239.852C703.172 238.705 702.547 237.818 701.729 237.193C700.911 236.568 699.916 236.256 698.746 236.256C697.553 236.256 696.547 236.58 695.729 237.227C694.911 237.875 694.291 238.773 693.871 239.92C693.451 241.068 693.24 242.398 693.24 243.909C693.24 245.432 693.451 246.778 693.871 247.949C694.303 249.108 694.922 250.017 695.729 250.676C696.547 251.324 697.553 251.648 698.746 251.648ZM727.325 257.511C724.631 257.511 722.313 256.966 720.37 255.875C718.438 254.773 716.95 253.216 715.904 251.205C714.859 249.182 714.336 246.79 714.336 244.028C714.336 241.335 714.859 238.972 715.904 236.938C716.95 234.903 718.421 233.318 720.319 232.182C722.228 231.045 724.467 230.477 727.035 230.477C728.762 230.477 730.37 230.756 731.859 231.312C733.359 231.858 734.665 232.682 735.779 233.784C736.904 234.886 737.779 236.273 738.404 237.943C739.029 239.602 739.342 241.545 739.342 243.773V245.767H717.234V241.267H732.506C732.506 240.222 732.279 239.295 731.825 238.489C731.37 237.682 730.739 237.051 729.932 236.597C729.137 236.131 728.211 235.898 727.154 235.898C726.052 235.898 725.075 236.153 724.222 236.665C723.381 237.165 722.722 237.841 722.245 238.693C721.768 239.534 721.523 240.472 721.512 241.506V245.784C721.512 247.08 721.751 248.199 722.228 249.142C722.717 250.085 723.404 250.812 724.29 251.324C725.177 251.835 726.228 252.091 727.444 252.091C728.251 252.091 728.989 251.977 729.66 251.75C730.33 251.523 730.904 251.182 731.381 250.727C731.859 250.273 732.222 249.716 732.472 249.057L739.188 249.5C738.847 251.114 738.148 252.523 737.092 253.727C736.046 254.92 734.694 255.852 733.035 256.523C731.387 257.182 729.484 257.511 727.325 257.511ZM755.833 266.818C754.912 266.818 754.048 266.744 753.242 266.597C752.446 266.46 751.787 266.284 751.264 266.068L752.901 260.648C753.753 260.909 754.52 261.051 755.202 261.074C755.895 261.097 756.492 260.938 756.992 260.597C757.503 260.256 757.918 259.676 758.236 258.858L758.662 257.75L749.27 230.818H756.906L762.327 250.045H762.6L768.071 230.818H775.759L765.583 259.83C765.094 261.239 764.429 262.466 763.588 263.511C762.759 264.568 761.708 265.381 760.435 265.949C759.162 266.528 757.628 266.818 755.833 266.818ZM788.54 257.511C785.893 257.511 783.603 256.949 781.671 255.824C779.751 254.687 778.268 253.108 777.222 251.085C776.177 249.051 775.654 246.693 775.654 244.011C775.654 241.307 776.177 238.943 777.222 236.92C778.268 234.886 779.751 233.307 781.671 232.182C783.603 231.045 785.893 230.477 788.54 230.477C791.188 230.477 793.472 231.045 795.393 232.182C797.325 233.307 798.813 234.886 799.859 236.92C800.904 238.943 801.427 241.307 801.427 244.011C801.427 246.693 800.904 249.051 799.859 251.085C798.813 253.108 797.325 254.687 795.393 255.824C793.472 256.949 791.188 257.511 788.54 257.511ZM788.575 251.886C789.779 251.886 790.785 251.545 791.592 250.864C792.398 250.17 793.006 249.227 793.415 248.034C793.836 246.841 794.046 245.483 794.046 243.96C794.046 242.438 793.836 241.08 793.415 239.886C793.006 238.693 792.398 237.75 791.592 237.057C790.785 236.364 789.779 236.017 788.575 236.017C787.359 236.017 786.336 236.364 785.506 237.057C784.688 237.75 784.069 238.693 783.648 239.886C783.239 241.08 783.035 242.438 783.035 243.96C783.035 245.483 783.239 246.841 783.648 248.034C784.069 249.227 784.688 250.17 785.506 250.864C786.336 251.545 787.359 251.886 788.575 251.886ZM821.018 245.852V230.818H828.279V257H821.308V252.244H821.035C820.444 253.778 819.461 255.011 818.086 255.943C816.723 256.875 815.058 257.341 813.092 257.341C811.342 257.341 809.802 256.943 808.473 256.148C807.143 255.352 806.103 254.222 805.353 252.756C804.615 251.29 804.24 249.534 804.228 247.489V230.818H811.49V246.193C811.501 247.739 811.916 248.96 812.734 249.858C813.552 250.756 814.649 251.205 816.024 251.205C816.899 251.205 817.717 251.006 818.478 250.608C819.24 250.199 819.853 249.597 820.319 248.801C820.797 248.006 821.029 247.023 821.018 245.852ZM863.141 238.284L856.493 238.693C856.38 238.125 856.136 237.614 855.761 237.159C855.386 236.693 854.891 236.324 854.278 236.051C853.675 235.767 852.954 235.625 852.113 235.625C850.988 235.625 850.039 235.864 849.266 236.341C848.493 236.807 848.107 237.432 848.107 238.216C848.107 238.841 848.357 239.369 848.857 239.801C849.357 240.233 850.215 240.58 851.431 240.841L856.17 241.795C858.715 242.318 860.613 243.159 861.863 244.318C863.113 245.477 863.738 247 863.738 248.886C863.738 250.602 863.232 252.108 862.221 253.403C861.221 254.699 859.846 255.71 858.096 256.438C856.357 257.153 854.351 257.511 852.079 257.511C848.613 257.511 845.851 256.79 843.795 255.347C841.749 253.892 840.55 251.915 840.198 249.415L847.34 249.04C847.556 250.097 848.079 250.903 848.908 251.46C849.738 252.006 850.8 252.278 852.096 252.278C853.368 252.278 854.391 252.034 855.164 251.545C855.948 251.045 856.346 250.403 856.357 249.619C856.346 248.96 856.067 248.42 855.522 248C854.976 247.568 854.136 247.239 852.999 247.011L848.465 246.108C845.908 245.597 844.005 244.71 842.755 243.449C841.516 242.187 840.897 240.58 840.897 238.625C840.897 236.943 841.351 235.494 842.261 234.278C843.181 233.062 844.471 232.125 846.13 231.466C847.8 230.807 849.755 230.477 851.993 230.477C855.3 230.477 857.903 231.176 859.8 232.574C861.709 233.972 862.823 235.875 863.141 238.284ZM866.39 266.818V230.818H873.549V235.216H873.873C874.191 234.511 874.652 233.795 875.254 233.068C875.867 232.33 876.663 231.716 877.64 231.227C878.629 230.727 879.856 230.477 881.322 230.477C883.231 230.477 884.992 230.977 886.606 231.977C888.22 232.966 889.51 234.46 890.475 236.46C891.441 238.449 891.924 240.943 891.924 243.943C891.924 246.864 891.453 249.33 890.51 251.341C889.578 253.341 888.305 254.858 886.691 255.892C885.089 256.915 883.294 257.426 881.305 257.426C879.896 257.426 878.697 257.193 877.708 256.727C876.731 256.261 875.93 255.676 875.305 254.972C874.68 254.256 874.203 253.534 873.873 252.807H873.652V266.818H866.39ZM873.498 243.909C873.498 245.466 873.714 246.824 874.146 247.983C874.578 249.142 875.203 250.045 876.021 250.693C876.839 251.33 877.833 251.648 879.004 251.648C880.186 251.648 881.186 251.324 882.004 250.676C882.822 250.017 883.441 249.108 883.862 247.949C884.294 246.778 884.51 245.432 884.51 243.909C884.51 242.398 884.299 241.068 883.879 239.92C883.458 238.773 882.839 237.875 882.021 237.227C881.203 236.58 880.197 236.256 879.004 236.256C877.822 236.256 876.822 236.568 876.004 237.193C875.197 237.818 874.578 238.705 874.146 239.852C873.714 241 873.498 242.352 873.498 243.909ZM906.777 257.511C904.084 257.511 901.766 256.966 899.823 255.875C897.891 254.773 896.402 253.216 895.357 251.205C894.311 249.182 893.788 246.79 893.788 244.028C893.788 241.335 894.311 238.972 895.357 236.938C896.402 234.903 897.874 233.318 899.771 232.182C901.68 231.045 903.919 230.477 906.487 230.477C908.215 230.477 909.823 230.756 911.311 231.312C912.811 231.858 914.118 232.682 915.232 233.784C916.357 234.886 917.232 236.273 917.857 237.943C918.482 239.602 918.794 241.545 918.794 243.773V245.767H896.686V241.267H911.959C911.959 240.222 911.732 239.295 911.277 238.489C910.823 237.682 910.192 237.051 909.385 236.597C908.59 236.131 907.663 235.898 906.607 235.898C905.504 235.898 904.527 236.153 903.675 236.665C902.834 237.165 902.175 237.841 901.698 238.693C901.22 239.534 900.976 240.472 900.965 241.506V245.784C900.965 247.08 901.203 248.199 901.68 249.142C902.169 250.085 902.857 250.812 903.743 251.324C904.629 251.835 905.68 252.091 906.896 252.091C907.703 252.091 908.442 251.977 909.112 251.75C909.783 251.523 910.357 251.182 910.834 250.727C911.311 250.273 911.675 249.716 911.925 249.057L918.641 249.5C918.3 251.114 917.601 252.523 916.544 253.727C915.499 254.92 914.146 255.852 912.487 256.523C910.84 257.182 908.936 257.511 906.777 257.511ZM928.874 241.864V257H921.613V230.818H928.533V235.438H928.84C929.42 233.915 930.391 232.71 931.755 231.824C933.118 230.926 934.772 230.477 936.715 230.477C938.533 230.477 940.118 230.875 941.471 231.67C942.823 232.466 943.874 233.602 944.624 235.08C945.374 236.545 945.749 238.295 945.749 240.33V257H938.488V241.625C938.499 240.023 938.09 238.773 937.26 237.875C936.431 236.966 935.289 236.511 933.834 236.511C932.857 236.511 931.993 236.722 931.243 237.142C930.505 237.562 929.925 238.176 929.505 238.983C929.096 239.778 928.885 240.739 928.874 241.864ZM963.478 230.818V236.273H947.711V230.818H963.478ZM951.291 224.545H958.552V248.955C958.552 249.625 958.654 250.148 958.859 250.523C959.063 250.886 959.348 251.142 959.711 251.29C960.086 251.437 960.518 251.511 961.007 251.511C961.348 251.511 961.688 251.483 962.029 251.426C962.37 251.358 962.632 251.307 962.813 251.273L963.956 256.676C963.592 256.79 963.081 256.92 962.421 257.068C961.762 257.227 960.961 257.324 960.018 257.358C958.268 257.426 956.734 257.193 955.416 256.659C954.109 256.125 953.092 255.295 952.365 254.17C951.637 253.045 951.279 251.625 951.291 249.909V224.545ZM982.944 257.494C981.273 257.494 979.785 257.205 978.478 256.625C977.171 256.034 976.137 255.165 975.375 254.017C974.625 252.858 974.25 251.415 974.25 249.688C974.25 248.233 974.517 247.011 975.052 246.023C975.586 245.034 976.313 244.239 977.233 243.636C978.154 243.034 979.199 242.58 980.37 242.273C981.552 241.966 982.79 241.75 984.086 241.625C985.608 241.466 986.836 241.318 987.767 241.182C988.699 241.034 989.375 240.818 989.796 240.534C990.216 240.25 990.427 239.83 990.427 239.273V239.17C990.427 238.091 990.086 237.256 989.404 236.665C988.733 236.074 987.779 235.778 986.54 235.778C985.233 235.778 984.194 236.068 983.421 236.648C982.648 237.216 982.137 237.932 981.887 238.795L975.171 238.25C975.512 236.659 976.182 235.284 977.182 234.125C978.182 232.955 979.472 232.057 981.052 231.432C982.642 230.795 984.483 230.477 986.574 230.477C988.029 230.477 989.421 230.648 990.75 230.989C992.091 231.33 993.279 231.858 994.313 232.574C995.358 233.29 996.182 234.21 996.785 235.335C997.387 236.449 997.688 237.784 997.688 239.341V257H990.802V253.369H990.597C990.177 254.188 989.614 254.909 988.91 255.534C988.205 256.148 987.358 256.631 986.37 256.983C985.381 257.324 984.239 257.494 982.944 257.494ZM985.023 252.483C986.091 252.483 987.035 252.273 987.853 251.852C988.671 251.42 989.313 250.841 989.779 250.114C990.245 249.386 990.478 248.562 990.478 247.642V244.864C990.25 245.011 989.938 245.148 989.54 245.273C989.154 245.386 988.716 245.494 988.228 245.597C987.739 245.687 987.25 245.773 986.762 245.852C986.273 245.92 985.83 245.983 985.432 246.04C984.58 246.165 983.836 246.364 983.199 246.636C982.563 246.909 982.069 247.278 981.716 247.744C981.364 248.199 981.188 248.767 981.188 249.449C981.188 250.438 981.546 251.193 982.262 251.716C982.989 252.227 983.91 252.483 985.023 252.483ZM1008.66 241.864V257H1001.4V230.818H1008.32V235.438H1008.63C1009.21 233.915 1010.18 232.71 1011.54 231.824C1012.91 230.926 1014.56 230.477 1016.5 230.477C1018.32 230.477 1019.91 230.875 1021.26 231.67C1022.61 232.466 1023.66 233.602 1024.41 235.08C1025.16 236.545 1025.54 238.295 1025.54 240.33V257H1018.28V241.625C1018.29 240.023 1017.88 238.773 1017.05 237.875C1016.22 236.966 1015.08 236.511 1013.62 236.511C1012.65 236.511 1011.78 236.722 1011.03 237.142C1010.29 237.562 1009.71 238.176 1009.29 238.983C1008.88 239.778 1008.67 240.739 1008.66 241.864ZM1045.79 241.864V257H1038.53V222.091H1045.59V235.438H1045.89C1046.48 233.892 1047.44 232.682 1048.76 231.807C1050.08 230.92 1051.73 230.477 1053.72 230.477C1055.54 230.477 1057.12 230.875 1058.47 231.67C1059.84 232.455 1060.89 233.585 1061.64 235.062C1062.41 236.528 1062.78 238.284 1062.77 240.33V257H1055.51V241.625C1055.52 240.011 1055.11 238.756 1054.28 237.858C1053.46 236.96 1052.31 236.511 1050.84 236.511C1049.85 236.511 1048.97 236.722 1048.21 237.142C1047.46 237.562 1046.87 238.176 1046.44 238.983C1046.02 239.778 1045.8 240.739 1045.79 241.864ZM1078.39 257.511C1075.75 257.511 1073.46 256.949 1071.52 255.824C1069.6 254.687 1068.12 253.108 1067.07 251.085C1066.03 249.051 1065.51 246.693 1065.51 244.011C1065.51 241.307 1066.03 238.943 1067.07 236.92C1068.12 234.886 1069.6 233.307 1071.52 232.182C1073.46 231.045 1075.75 230.477 1078.39 230.477C1081.04 230.477 1083.32 231.045 1085.25 232.182C1087.18 233.307 1088.67 234.886 1089.71 236.92C1090.76 238.943 1091.28 241.307 1091.28 244.011C1091.28 246.693 1090.76 249.051 1089.71 251.085C1088.67 253.108 1087.18 254.687 1085.25 255.824C1083.32 256.949 1081.04 257.511 1078.39 257.511ZM1078.43 251.886C1079.63 251.886 1080.64 251.545 1081.44 250.864C1082.25 250.17 1082.86 249.227 1083.27 248.034C1083.69 246.841 1083.9 245.483 1083.9 243.96C1083.9 242.438 1083.69 241.08 1083.27 239.886C1082.86 238.693 1082.25 237.75 1081.44 237.057C1080.64 236.364 1079.63 236.017 1078.43 236.017C1077.21 236.017 1076.19 236.364 1075.36 237.057C1074.54 237.75 1073.92 238.693 1073.5 239.886C1073.09 241.08 1072.89 242.438 1072.89 243.96C1072.89 245.483 1073.09 246.841 1073.5 248.034C1073.92 249.227 1074.54 250.17 1075.36 250.864C1076.19 251.545 1077.21 251.886 1078.43 251.886ZM1110.87 245.852V230.818H1118.13V257H1111.16V252.244H1110.89C1110.3 253.778 1109.31 255.011 1107.94 255.943C1106.58 256.875 1104.91 257.341 1102.94 257.341C1101.19 257.341 1099.65 256.943 1098.33 256.148C1097 255.352 1095.96 254.222 1095.21 252.756C1094.47 251.29 1094.09 249.534 1094.08 247.489V230.818H1101.34V246.193C1101.35 247.739 1101.77 248.96 1102.59 249.858C1103.4 250.756 1104.5 251.205 1105.88 251.205C1106.75 251.205 1107.57 251.006 1108.33 250.608C1109.09 250.199 1109.71 249.597 1110.17 248.801C1110.65 248.006 1110.88 247.023 1110.87 245.852ZM1122.02 257V230.818H1129.06V235.386H1129.33C1129.81 233.761 1130.61 232.534 1131.74 231.705C1132.86 230.864 1134.16 230.443 1135.62 230.443C1135.99 230.443 1136.38 230.466 1136.8 230.511C1137.22 230.557 1137.59 230.619 1137.91 230.699V237.142C1137.57 237.04 1137.09 236.949 1136.49 236.869C1135.89 236.79 1135.34 236.75 1134.84 236.75C1133.77 236.75 1132.82 236.983 1131.97 237.449C1131.15 237.903 1130.49 238.54 1130 239.358C1129.52 240.176 1129.28 241.119 1129.28 242.188V257H1122.02ZM466.034 315V280.091H473.295V293.216H473.517C473.835 292.511 474.295 291.795 474.898 291.068C475.511 290.33 476.307 289.716 477.284 289.227C478.273 288.727 479.5 288.477 480.966 288.477C482.875 288.477 484.636 288.977 486.25 289.977C487.864 290.966 489.153 292.46 490.119 294.46C491.085 296.449 491.568 298.943 491.568 301.943C491.568 304.864 491.097 307.33 490.153 309.341C489.222 311.341 487.949 312.858 486.335 313.892C484.733 314.915 482.938 315.426 480.949 315.426C479.54 315.426 478.341 315.193 477.352 314.727C476.375 314.261 475.574 313.676 474.949 312.972C474.324 312.256 473.847 311.534 473.517 310.807H473.193V315H466.034ZM473.142 301.909C473.142 303.466 473.358 304.824 473.79 305.983C474.222 307.142 474.847 308.045 475.665 308.693C476.483 309.33 477.477 309.648 478.648 309.648C479.83 309.648 480.83 309.324 481.648 308.676C482.466 308.017 483.085 307.108 483.506 305.949C483.938 304.778 484.153 303.432 484.153 301.909C484.153 300.398 483.943 299.068 483.523 297.92C483.102 296.773 482.483 295.875 481.665 295.227C480.847 294.58 479.841 294.256 478.648 294.256C477.466 294.256 476.466 294.568 475.648 295.193C474.841 295.818 474.222 296.705 473.79 297.852C473.358 299 473.142 300.352 473.142 301.909ZM511.283 303.852V288.818H518.544V315H511.573V310.244H511.3C510.709 311.778 509.726 313.011 508.351 313.943C506.988 314.875 505.323 315.341 503.357 315.341C501.607 315.341 500.067 314.943 498.738 314.148C497.408 313.352 496.368 312.222 495.618 310.756C494.88 309.29 494.505 307.534 494.493 305.489V288.818H501.755V304.193C501.766 305.739 502.181 306.96 502.999 307.858C503.817 308.756 504.914 309.205 506.289 309.205C507.164 309.205 507.982 309.006 508.743 308.608C509.505 308.199 510.118 307.597 510.584 306.801C511.062 306.006 511.294 305.023 511.283 303.852ZM522.433 315V288.818H529.694V315H522.433ZM526.08 285.443C525.001 285.443 524.075 285.085 523.302 284.369C522.541 283.642 522.16 282.773 522.16 281.761C522.16 280.761 522.541 279.903 523.302 279.188C524.075 278.46 525.001 278.097 526.08 278.097C527.16 278.097 528.08 278.46 528.842 279.188C529.615 279.903 530.001 280.761 530.001 281.761C530.001 282.773 529.615 283.642 528.842 284.369C528.08 285.085 527.16 285.443 526.08 285.443ZM540.852 280.091V315H533.591V280.091H540.852ZM554.397 315.426C552.408 315.426 550.607 314.915 548.993 313.892C547.391 312.858 546.118 311.341 545.175 309.341C544.243 307.33 543.777 304.864 543.777 301.943C543.777 298.943 544.26 296.449 545.226 294.46C546.192 292.46 547.476 290.966 549.079 289.977C550.692 288.977 552.459 288.477 554.38 288.477C555.846 288.477 557.067 288.727 558.044 289.227C559.033 289.716 559.829 290.33 560.431 291.068C561.044 291.795 561.51 292.511 561.829 293.216H562.05V280.091H569.294V315H562.135V310.807H561.829C561.488 311.534 561.005 312.256 560.38 312.972C559.766 313.676 558.965 314.261 557.976 314.727C556.999 315.193 555.806 315.426 554.397 315.426ZM556.698 309.648C557.868 309.648 558.857 309.33 559.664 308.693C560.482 308.045 561.107 307.142 561.539 305.983C561.982 304.824 562.204 303.466 562.204 301.909C562.204 300.352 561.988 299 561.556 297.852C561.124 296.705 560.499 295.818 559.681 295.193C558.863 294.568 557.868 294.256 556.698 294.256C555.505 294.256 554.499 294.58 553.681 295.227C552.863 295.875 552.243 296.773 551.823 297.92C551.402 299.068 551.192 300.398 551.192 301.909C551.192 303.432 551.402 304.778 551.823 305.949C552.255 307.108 552.874 308.017 553.681 308.676C554.499 309.324 555.505 309.648 556.698 309.648ZM573.345 315V288.818H580.606V315H573.345ZM576.992 285.443C575.913 285.443 574.987 285.085 574.214 284.369C573.453 283.642 573.072 282.773 573.072 281.761C573.072 280.761 573.453 279.903 574.214 279.188C574.987 278.46 575.913 278.097 576.992 278.097C578.072 278.097 578.992 278.46 579.754 279.188C580.526 279.903 580.913 280.761 580.913 281.761C580.913 282.773 580.526 283.642 579.754 284.369C578.992 285.085 578.072 285.443 576.992 285.443ZM591.764 299.864V315H584.503V288.818H591.423V293.438H591.73C592.31 291.915 593.281 290.71 594.645 289.824C596.008 288.926 597.662 288.477 599.605 288.477C601.423 288.477 603.008 288.875 604.361 289.67C605.713 290.466 606.764 291.602 607.514 293.08C608.264 294.545 608.639 296.295 608.639 298.33V315H601.378V299.625C601.389 298.023 600.98 296.773 600.15 295.875C599.321 294.966 598.179 294.511 596.724 294.511C595.747 294.511 594.883 294.722 594.133 295.142C593.395 295.562 592.815 296.176 592.395 296.983C591.986 297.778 591.775 298.739 591.764 299.864ZM624.238 325.364C621.885 325.364 619.868 325.04 618.186 324.392C616.516 323.756 615.186 322.886 614.198 321.784C613.209 320.682 612.567 319.443 612.272 318.068L618.988 317.165C619.192 317.688 619.516 318.176 619.959 318.631C620.402 319.085 620.988 319.449 621.715 319.722C622.453 320.006 623.351 320.148 624.408 320.148C625.988 320.148 627.289 319.761 628.311 318.989C629.346 318.227 629.863 316.949 629.863 315.153V310.364H629.556C629.238 311.091 628.76 311.778 628.124 312.426C627.488 313.074 626.669 313.602 625.669 314.011C624.669 314.42 623.476 314.625 622.09 314.625C620.124 314.625 618.334 314.17 616.721 313.261C615.118 312.341 613.84 310.937 612.885 309.051C611.942 307.153 611.471 304.756 611.471 301.858C611.471 298.892 611.953 296.415 612.919 294.426C613.885 292.437 615.169 290.949 616.772 289.96C618.385 288.972 620.152 288.477 622.073 288.477C623.539 288.477 624.766 288.727 625.755 289.227C626.743 289.716 627.539 290.33 628.141 291.068C628.755 291.795 629.226 292.511 629.556 293.216H629.828V288.818H637.039V315.256C637.039 317.483 636.493 319.347 635.402 320.847C634.311 322.347 632.8 323.472 630.868 324.222C628.948 324.983 626.738 325.364 624.238 325.364ZM624.391 309.17C625.561 309.17 626.55 308.881 627.357 308.301C628.175 307.71 628.8 306.869 629.232 305.778C629.675 304.676 629.897 303.358 629.897 301.824C629.897 300.29 629.681 298.96 629.249 297.835C628.817 296.699 628.192 295.818 627.374 295.193C626.556 294.568 625.561 294.256 624.391 294.256C623.198 294.256 622.192 294.58 621.374 295.227C620.556 295.864 619.936 296.75 619.516 297.886C619.096 299.023 618.885 300.335 618.885 301.824C618.885 303.335 619.096 304.642 619.516 305.744C619.948 306.835 620.567 307.682 621.374 308.284C622.192 308.875 623.198 309.17 624.391 309.17ZM657.552 315.494C655.882 315.494 654.393 315.205 653.086 314.625C651.78 314.034 650.746 313.165 649.984 312.017C649.234 310.858 648.859 309.415 648.859 307.688C648.859 306.233 649.126 305.011 649.66 304.023C650.194 303.034 650.922 302.239 651.842 301.636C652.763 301.034 653.808 300.58 654.979 300.273C656.16 299.966 657.399 299.75 658.694 299.625C660.217 299.466 661.444 299.318 662.376 299.182C663.308 299.034 663.984 298.818 664.405 298.534C664.825 298.25 665.035 297.83 665.035 297.273V297.17C665.035 296.091 664.694 295.256 664.013 294.665C663.342 294.074 662.388 293.778 661.149 293.778C659.842 293.778 658.802 294.068 658.03 294.648C657.257 295.216 656.746 295.932 656.496 296.795L649.78 296.25C650.121 294.659 650.791 293.284 651.791 292.125C652.791 290.955 654.081 290.057 655.66 289.432C657.251 288.795 659.092 288.477 661.183 288.477C662.638 288.477 664.03 288.648 665.359 288.989C666.7 289.33 667.888 289.858 668.922 290.574C669.967 291.29 670.791 292.21 671.393 293.335C671.996 294.449 672.297 295.784 672.297 297.341V315H665.41V311.369H665.206C664.785 312.188 664.223 312.909 663.518 313.534C662.814 314.148 661.967 314.631 660.979 314.983C659.99 315.324 658.848 315.494 657.552 315.494ZM659.632 310.483C660.7 310.483 661.643 310.273 662.461 309.852C663.28 309.42 663.922 308.841 664.388 308.114C664.854 307.386 665.086 306.562 665.086 305.642V302.864C664.859 303.011 664.547 303.148 664.149 303.273C663.763 303.386 663.325 303.494 662.836 303.597C662.348 303.687 661.859 303.773 661.371 303.852C660.882 303.92 660.439 303.983 660.041 304.04C659.189 304.165 658.444 304.364 657.808 304.636C657.172 304.909 656.677 305.278 656.325 305.744C655.973 306.199 655.797 306.767 655.797 307.449C655.797 308.438 656.155 309.193 656.871 309.716C657.598 310.227 658.518 310.483 659.632 310.483ZM683.272 299.864V315H676.01V288.818H682.931V293.438H683.238C683.817 291.915 684.789 290.71 686.152 289.824C687.516 288.926 689.169 288.477 691.113 288.477C692.931 288.477 694.516 288.875 695.868 289.67C697.22 290.466 698.272 291.602 699.022 293.08C699.772 294.545 700.147 296.295 700.147 298.33V315H692.885V299.625C692.897 298.023 692.488 296.773 691.658 295.875C690.828 294.966 689.686 294.511 688.232 294.511C687.255 294.511 686.391 294.722 685.641 295.142C684.902 295.562 684.323 296.176 683.902 296.983C683.493 297.778 683.283 298.739 683.272 299.864ZM713.597 315.426C711.609 315.426 709.808 314.915 708.194 313.892C706.592 312.858 705.319 311.341 704.376 309.341C703.444 307.33 702.978 304.864 702.978 301.943C702.978 298.943 703.461 296.449 704.427 294.46C705.393 292.46 706.677 290.966 708.279 289.977C709.893 288.977 711.66 288.477 713.58 288.477C715.046 288.477 716.268 288.727 717.245 289.227C718.234 289.716 719.029 290.33 719.631 291.068C720.245 291.795 720.711 292.511 721.029 293.216H721.251V280.091H728.495V315H721.336V310.807H721.029C720.688 311.534 720.205 312.256 719.58 312.972C718.967 313.676 718.166 314.261 717.177 314.727C716.2 315.193 715.006 315.426 713.597 315.426ZM715.898 309.648C717.069 309.648 718.058 309.33 718.864 308.693C719.683 308.045 720.308 307.142 720.739 305.983C721.183 304.824 721.404 303.466 721.404 301.909C721.404 300.352 721.188 299 720.756 297.852C720.325 296.705 719.7 295.818 718.881 295.193C718.063 294.568 717.069 294.256 715.898 294.256C714.705 294.256 713.7 294.58 712.881 295.227C712.063 295.875 711.444 296.773 711.023 297.92C710.603 299.068 710.393 300.398 710.393 301.909C710.393 303.432 710.603 304.778 711.023 305.949C711.455 307.108 712.075 308.017 712.881 308.676C713.7 309.324 714.705 309.648 715.898 309.648ZM748.314 307.466L748.331 298.756H749.388L757.774 288.818H766.11L754.843 301.977H753.121L748.314 307.466ZM741.735 315V280.091H748.996V315H741.735ZM758.098 315L750.394 303.597L755.235 298.466L766.604 315H758.098ZM775.013 299.864V315H767.752V288.818H774.673V293.438H774.979C775.559 291.915 776.531 290.71 777.894 289.824C779.258 288.926 780.911 288.477 782.854 288.477C784.673 288.477 786.258 288.875 787.61 289.67C788.962 290.466 790.013 291.602 790.763 293.08C791.513 294.545 791.888 296.295 791.888 298.33V315H784.627V299.625C784.638 298.023 784.229 296.773 783.4 295.875C782.57 294.966 781.428 294.511 779.974 294.511C778.996 294.511 778.133 294.722 777.383 295.142C776.644 295.562 776.065 296.176 775.644 296.983C775.235 297.778 775.025 298.739 775.013 299.864ZM807.521 315.511C804.873 315.511 802.584 314.949 800.652 313.824C798.731 312.687 797.248 311.108 796.203 309.085C795.157 307.051 794.635 304.693 794.635 302.011C794.635 299.307 795.157 296.943 796.203 294.92C797.248 292.886 798.731 291.307 800.652 290.182C802.584 289.045 804.873 288.477 807.521 288.477C810.169 288.477 812.453 289.045 814.373 290.182C816.305 291.307 817.794 292.886 818.839 294.92C819.885 296.943 820.407 299.307 820.407 302.011C820.407 304.693 819.885 307.051 818.839 309.085C817.794 311.108 816.305 312.687 814.373 313.824C812.453 314.949 810.169 315.511 807.521 315.511ZM807.555 309.886C808.76 309.886 809.765 309.545 810.572 308.864C811.379 308.17 811.987 307.227 812.396 306.034C812.816 304.841 813.027 303.483 813.027 301.96C813.027 300.438 812.816 299.08 812.396 297.886C811.987 296.693 811.379 295.75 810.572 295.057C809.765 294.364 808.76 294.017 807.555 294.017C806.339 294.017 805.316 294.364 804.487 295.057C803.669 295.75 803.049 296.693 802.629 297.886C802.22 299.08 802.015 300.438 802.015 301.96C802.015 303.483 802.22 304.841 802.629 306.034C803.049 307.227 803.669 308.17 804.487 308.864C805.316 309.545 806.339 309.886 807.555 309.886ZM827.717 315L820.592 288.818H827.939L831.996 306.409H832.235L836.462 288.818H843.672L847.967 306.307H848.189L852.178 288.818H859.507L852.399 315H844.712L840.212 298.534H839.888L835.388 315H827.717ZM875.133 324.818C874.213 324.818 873.349 324.744 872.542 324.597C871.747 324.46 871.088 324.284 870.565 324.068L872.201 318.648C873.054 318.909 873.821 319.051 874.503 319.074C875.196 319.097 875.792 318.938 876.292 318.597C876.804 318.256 877.218 317.676 877.537 316.858L877.963 315.75L868.571 288.818H876.207L881.628 308.045H881.9L887.372 288.818H895.059L884.883 317.83C884.395 319.239 883.73 320.466 882.889 321.511C882.059 322.568 881.008 323.381 879.735 323.949C878.463 324.528 876.929 324.818 875.133 324.818ZM907.841 315.511C905.193 315.511 902.904 314.949 900.972 313.824C899.051 312.687 897.568 311.108 896.523 309.085C895.477 307.051 894.955 304.693 894.955 302.011C894.955 299.307 895.477 296.943 896.523 294.92C897.568 292.886 899.051 291.307 900.972 290.182C902.904 289.045 905.193 288.477 907.841 288.477C910.489 288.477 912.773 289.045 914.693 290.182C916.625 291.307 918.114 292.886 919.159 294.92C920.205 296.943 920.727 299.307 920.727 302.011C920.727 304.693 920.205 307.051 919.159 309.085C918.114 311.108 916.625 312.687 914.693 313.824C912.773 314.949 910.489 315.511 907.841 315.511ZM907.875 309.886C909.08 309.886 910.085 309.545 910.892 308.864C911.699 308.17 912.307 307.227 912.716 306.034C913.136 304.841 913.347 303.483 913.347 301.96C913.347 300.438 913.136 299.08 912.716 297.886C912.307 296.693 911.699 295.75 910.892 295.057C910.085 294.364 909.08 294.017 907.875 294.017C906.659 294.017 905.636 294.364 904.807 295.057C903.989 295.75 903.369 296.693 902.949 297.886C902.54 299.08 902.335 300.438 902.335 301.96C902.335 303.483 902.54 304.841 902.949 306.034C903.369 307.227 903.989 308.17 904.807 308.864C905.636 309.545 906.659 309.886 907.875 309.886ZM940.319 303.852V288.818H947.58V315H940.609V310.244H940.336C939.745 311.778 938.762 313.011 937.387 313.943C936.023 314.875 934.359 315.341 932.393 315.341C930.643 315.341 929.103 314.943 927.773 314.148C926.444 313.352 925.404 312.222 924.654 310.756C923.915 309.29 923.54 307.534 923.529 305.489V288.818H930.79V304.193C930.802 305.739 931.216 306.96 932.035 307.858C932.853 308.756 933.949 309.205 935.324 309.205C936.199 309.205 937.018 309.006 937.779 308.608C938.54 308.199 939.154 307.597 939.62 306.801C940.097 306.006 940.33 305.023 940.319 303.852ZM958.257 280.091V283.773C958.257 284.818 958.052 285.886 957.643 286.977C957.245 288.057 956.711 289.08 956.041 290.045C955.37 291 954.637 291.812 953.842 292.483L950.637 290.591C951.206 289.693 951.706 288.699 952.137 287.608C952.581 286.517 952.802 285.25 952.802 283.807V280.091H958.257ZM968.435 280.091V315H961.173V280.091H968.435ZM979.593 280.091V315H972.331V280.091H979.593ZM997.844 315L990.719 288.818H998.065L1002.12 306.409H1002.36L1006.59 288.818H1013.8L1018.09 306.307H1018.32L1022.3 288.818H1029.63L1022.53 315H1014.84L1010.34 298.534H1010.01L1005.51 315H997.844ZM1039.05 315.494C1037.38 315.494 1035.89 315.205 1034.59 314.625C1033.28 314.034 1032.25 313.165 1031.48 312.017C1030.73 310.858 1030.36 309.415 1030.36 307.688C1030.36 306.233 1030.63 305.011 1031.16 304.023C1031.7 303.034 1032.42 302.239 1033.34 301.636C1034.26 301.034 1035.31 300.58 1036.48 300.273C1037.66 299.966 1038.9 299.75 1040.2 299.625C1041.72 299.466 1042.95 299.318 1043.88 299.182C1044.81 299.034 1045.48 298.818 1045.91 298.534C1046.33 298.25 1046.54 297.83 1046.54 297.273V297.17C1046.54 296.091 1046.2 295.256 1045.51 294.665C1044.84 294.074 1043.89 293.778 1042.65 293.778C1041.34 293.778 1040.3 294.068 1039.53 294.648C1038.76 295.216 1038.25 295.932 1038 296.795L1031.28 296.25C1031.62 294.659 1032.29 293.284 1033.29 292.125C1034.29 290.955 1035.58 290.057 1037.16 289.432C1038.75 288.795 1040.59 288.477 1042.68 288.477C1044.14 288.477 1045.53 288.648 1046.86 288.989C1048.2 289.33 1049.39 289.858 1050.42 290.574C1051.47 291.29 1052.29 292.21 1052.89 293.335C1053.5 294.449 1053.8 295.784 1053.8 297.341V315H1046.91V311.369H1046.71C1046.29 312.188 1045.72 312.909 1045.02 313.534C1044.31 314.148 1043.47 314.631 1042.48 314.983C1041.49 315.324 1040.35 315.494 1039.05 315.494ZM1041.13 310.483C1042.2 310.483 1043.14 310.273 1043.96 309.852C1044.78 309.42 1045.42 308.841 1045.89 308.114C1046.35 307.386 1046.59 306.562 1046.59 305.642V302.864C1046.36 303.011 1046.05 303.148 1045.65 303.273C1045.26 303.386 1044.83 303.494 1044.34 303.597C1043.85 303.687 1043.36 303.773 1042.87 303.852C1042.38 303.92 1041.94 303.983 1041.54 304.04C1040.69 304.165 1039.95 304.364 1039.31 304.636C1038.67 304.909 1038.18 305.278 1037.83 305.744C1037.47 306.199 1037.3 306.767 1037.3 307.449C1037.3 308.438 1037.66 309.193 1038.37 309.716C1039.1 310.227 1040.02 310.483 1041.13 310.483ZM1064.77 299.864V315H1057.51V288.818H1064.43V293.438H1064.74C1065.32 291.915 1066.29 290.71 1067.65 289.824C1069.02 288.926 1070.67 288.477 1072.61 288.477C1074.43 288.477 1076.02 288.875 1077.37 289.67C1078.72 290.466 1079.77 291.602 1080.52 293.08C1081.27 294.545 1081.65 296.295 1081.65 298.33V315H1074.39V299.625C1074.4 298.023 1073.99 296.773 1073.16 295.875C1072.33 294.966 1071.19 294.511 1069.73 294.511C1068.76 294.511 1067.89 294.722 1067.14 295.142C1066.4 295.562 1065.82 296.176 1065.4 296.983C1064.99 297.778 1064.78 298.739 1064.77 299.864ZM1099.38 288.818V294.273H1083.61V288.818H1099.38ZM1087.19 282.545H1094.45V306.955C1094.45 307.625 1094.55 308.148 1094.76 308.523C1094.96 308.886 1095.25 309.142 1095.61 309.29C1095.98 309.437 1096.42 309.511 1096.9 309.511C1097.25 309.511 1097.59 309.483 1097.93 309.426C1098.27 309.358 1098.53 309.307 1098.71 309.273L1099.85 314.676C1099.49 314.79 1098.98 314.92 1098.32 315.068C1097.66 315.227 1096.86 315.324 1095.92 315.358C1094.17 315.426 1092.63 315.193 1091.31 314.659C1090.01 314.125 1088.99 313.295 1088.26 312.17C1087.54 311.045 1087.18 309.625 1087.19 307.909V282.545ZM1125.3 288.818V294.273H1109.53V288.818H1125.3ZM1113.11 282.545H1120.38V306.955C1120.38 307.625 1120.48 308.148 1120.68 308.523C1120.89 308.886 1121.17 309.142 1121.53 309.29C1121.91 309.437 1122.34 309.511 1122.83 309.511C1123.17 309.511 1123.51 309.483 1123.85 309.426C1124.19 309.358 1124.46 309.307 1124.64 309.273L1125.78 314.676C1125.42 314.79 1124.9 314.92 1124.25 315.068C1123.59 315.227 1122.78 315.324 1121.84 315.358C1120.09 315.426 1118.56 315.193 1117.24 314.659C1115.93 314.125 1114.92 313.295 1114.19 312.17C1113.46 311.045 1113.1 309.625 1113.11 307.909V282.545ZM1139.66 315.511C1137.01 315.511 1134.72 314.949 1132.79 313.824C1130.87 312.687 1129.39 311.108 1128.34 309.085C1127.3 307.051 1126.77 304.693 1126.77 302.011C1126.77 299.307 1127.3 296.943 1128.34 294.92C1129.39 292.886 1130.87 291.307 1132.79 290.182C1134.72 289.045 1137.01 288.477 1139.66 288.477C1142.31 288.477 1144.59 289.045 1146.51 290.182C1148.44 291.307 1149.93 292.886 1150.98 294.92C1152.02 296.943 1152.55 299.307 1152.55 302.011C1152.55 304.693 1152.02 307.051 1150.98 309.085C1149.93 311.108 1148.44 312.687 1146.51 313.824C1144.59 314.949 1142.31 315.511 1139.66 315.511ZM1139.69 309.886C1140.9 309.886 1141.9 309.545 1142.71 308.864C1143.52 308.17 1144.13 307.227 1144.54 306.034C1144.96 304.841 1145.17 303.483 1145.17 301.96C1145.17 300.438 1144.96 299.08 1144.54 297.886C1144.13 296.693 1143.52 295.75 1142.71 295.057C1141.9 294.364 1140.9 294.017 1139.69 294.017C1138.48 294.017 1137.46 294.364 1136.63 295.057C1135.81 295.75 1135.19 296.693 1134.77 297.886C1134.36 299.08 1134.15 300.438 1134.15 301.96C1134.15 303.483 1134.36 304.841 1134.77 306.034C1135.19 307.227 1135.81 308.17 1136.63 308.864C1137.46 309.545 1138.48 309.886 1139.69 309.886ZM465.898 373V346.818H472.938V351.386H473.21C473.688 349.761 474.489 348.534 475.614 347.705C476.739 346.864 478.034 346.443 479.5 346.443C479.864 346.443 480.256 346.466 480.676 346.511C481.097 346.557 481.466 346.619 481.784 346.699V353.142C481.443 353.04 480.972 352.949 480.369 352.869C479.767 352.79 479.216 352.75 478.716 352.75C477.648 352.75 476.693 352.983 475.852 353.449C475.023 353.903 474.364 354.54 473.875 355.358C473.398 356.176 473.159 357.119 473.159 358.188V373H465.898ZM494.331 373.511C491.638 373.511 489.32 372.966 487.377 371.875C485.445 370.773 483.956 369.216 482.911 367.205C481.866 365.182 481.343 362.79 481.343 360.028C481.343 357.335 481.866 354.972 482.911 352.938C483.956 350.903 485.428 349.318 487.326 348.182C489.235 347.045 491.473 346.477 494.042 346.477C495.769 346.477 497.377 346.756 498.866 347.312C500.366 347.858 501.672 348.682 502.786 349.784C503.911 350.886 504.786 352.273 505.411 353.943C506.036 355.602 506.348 357.545 506.348 359.773V361.767H484.241V357.267H499.513C499.513 356.222 499.286 355.295 498.831 354.489C498.377 353.682 497.746 353.051 496.939 352.597C496.144 352.131 495.218 351.898 494.161 351.898C493.059 351.898 492.081 352.153 491.229 352.665C490.388 353.165 489.729 353.841 489.252 354.693C488.775 355.534 488.53 356.472 488.519 357.506V361.784C488.519 363.08 488.758 364.199 489.235 365.142C489.723 366.085 490.411 366.812 491.297 367.324C492.184 367.835 493.235 368.091 494.451 368.091C495.258 368.091 495.996 367.977 496.667 367.75C497.337 367.523 497.911 367.182 498.388 366.727C498.866 366.273 499.229 365.716 499.479 365.057L506.195 365.5C505.854 367.114 505.155 368.523 504.098 369.727C503.053 370.92 501.701 371.852 500.042 372.523C498.394 373.182 496.491 373.511 494.331 373.511ZM525.957 361.852V346.818H533.218V373H526.247V368.244H525.974C525.383 369.778 524.4 371.011 523.025 371.943C521.661 372.875 519.997 373.341 518.031 373.341C516.281 373.341 514.741 372.943 513.411 372.148C512.082 371.352 511.042 370.222 510.292 368.756C509.553 367.29 509.178 365.534 509.167 363.489V346.818H516.428V362.193C516.44 363.739 516.855 364.96 517.673 365.858C518.491 366.756 519.588 367.205 520.963 367.205C521.838 367.205 522.656 367.006 523.417 366.608C524.178 366.199 524.792 365.597 525.258 364.801C525.735 364.006 525.968 363.023 525.957 361.852ZM558.891 354.284L552.243 354.693C552.129 354.125 551.885 353.614 551.51 353.159C551.135 352.693 550.641 352.324 550.027 352.051C549.425 351.767 548.703 351.625 547.862 351.625C546.737 351.625 545.788 351.864 545.016 352.341C544.243 352.807 543.856 353.432 543.856 354.216C543.856 354.841 544.106 355.369 544.606 355.801C545.106 356.233 545.964 356.58 547.18 356.841L551.919 357.795C554.464 358.318 556.362 359.159 557.612 360.318C558.862 361.477 559.487 363 559.487 364.886C559.487 366.602 558.981 368.108 557.97 369.403C556.97 370.699 555.595 371.71 553.845 372.438C552.106 373.153 550.101 373.511 547.828 373.511C544.362 373.511 541.601 372.79 539.544 371.347C537.499 369.892 536.3 367.915 535.947 365.415L543.089 365.04C543.305 366.097 543.828 366.903 544.658 367.46C545.487 368.006 546.55 368.278 547.845 368.278C549.118 368.278 550.141 368.034 550.913 367.545C551.697 367.045 552.095 366.403 552.106 365.619C552.095 364.96 551.817 364.42 551.271 364C550.726 363.568 549.885 363.239 548.749 363.011L544.214 362.108C541.658 361.597 539.754 360.71 538.504 359.449C537.266 358.187 536.646 356.58 536.646 354.625C536.646 352.943 537.101 351.494 538.01 350.278C538.93 349.062 540.22 348.125 541.879 347.466C543.55 346.807 545.504 346.477 547.743 346.477C551.05 346.477 553.652 347.176 555.55 348.574C557.459 349.972 558.572 351.875 558.891 354.284ZM574.071 373.511C571.378 373.511 569.06 372.966 567.117 371.875C565.185 370.773 563.696 369.216 562.651 367.205C561.606 365.182 561.083 362.79 561.083 360.028C561.083 357.335 561.606 354.972 562.651 352.938C563.696 350.903 565.168 349.318 567.066 348.182C568.975 347.045 571.213 346.477 573.782 346.477C575.509 346.477 577.117 346.756 578.606 347.312C580.106 347.858 581.412 348.682 582.526 349.784C583.651 350.886 584.526 352.273 585.151 353.943C585.776 355.602 586.088 357.545 586.088 359.773V361.767H563.981V357.267H579.253C579.253 356.222 579.026 355.295 578.571 354.489C578.117 353.682 577.486 353.051 576.679 352.597C575.884 352.131 574.958 351.898 573.901 351.898C572.799 351.898 571.821 352.153 570.969 352.665C570.128 353.165 569.469 353.841 568.992 354.693C568.515 355.534 568.27 356.472 568.259 357.506V361.784C568.259 363.08 568.498 364.199 568.975 365.142C569.463 366.085 570.151 366.812 571.037 367.324C571.924 367.835 572.975 368.091 574.191 368.091C574.998 368.091 575.736 367.977 576.407 367.75C577.077 367.523 577.651 367.182 578.128 366.727C578.606 366.273 578.969 365.716 579.219 365.057L585.935 365.5C585.594 367.114 584.895 368.523 583.838 369.727C582.793 370.92 581.441 371.852 579.782 372.523C578.134 373.182 576.231 373.511 574.071 373.511ZM612.176 346.818V352.273H596.017V346.818H612.176ZM599.716 373V344.926C599.716 343.028 600.085 341.455 600.824 340.205C601.574 338.955 602.596 338.017 603.892 337.392C605.187 336.767 606.659 336.455 608.307 336.455C609.42 336.455 610.437 336.54 611.358 336.71C612.29 336.881 612.983 337.034 613.437 337.17L612.142 342.625C611.858 342.534 611.506 342.449 611.085 342.369C610.676 342.29 610.256 342.25 609.824 342.25C608.756 342.25 608.011 342.5 607.591 343C607.17 343.489 606.96 344.176 606.96 345.062V373H599.716ZM625.584 373.511C622.936 373.511 620.647 372.949 618.715 371.824C616.794 370.687 615.311 369.108 614.266 367.085C613.221 365.051 612.698 362.693 612.698 360.011C612.698 357.307 613.221 354.943 614.266 352.92C615.311 350.886 616.794 349.307 618.715 348.182C620.647 347.045 622.936 346.477 625.584 346.477C628.232 346.477 630.516 347.045 632.436 348.182C634.368 349.307 635.857 350.886 636.902 352.92C637.948 354.943 638.471 357.307 638.471 360.011C638.471 362.693 637.948 365.051 636.902 367.085C635.857 369.108 634.368 370.687 632.436 371.824C630.516 372.949 628.232 373.511 625.584 373.511ZM625.618 367.886C626.823 367.886 627.828 367.545 628.635 366.864C629.442 366.17 630.05 365.227 630.459 364.034C630.88 362.841 631.09 361.483 631.09 359.96C631.09 358.438 630.88 357.08 630.459 355.886C630.05 354.693 629.442 353.75 628.635 353.057C627.828 352.364 626.823 352.017 625.618 352.017C624.402 352.017 623.38 352.364 622.55 353.057C621.732 353.75 621.113 354.693 620.692 355.886C620.283 357.08 620.078 358.438 620.078 359.96C620.078 361.483 620.283 362.841 620.692 364.034C621.113 365.227 621.732 366.17 622.55 366.864C623.38 367.545 624.402 367.886 625.618 367.886ZM641.272 373V346.818H648.312V351.386H648.585C649.062 349.761 649.863 348.534 650.988 347.705C652.113 346.864 653.408 346.443 654.874 346.443C655.238 346.443 655.63 346.466 656.051 346.511C656.471 346.557 656.84 346.619 657.158 346.699V353.142C656.818 353.04 656.346 352.949 655.744 352.869C655.141 352.79 654.59 352.75 654.09 352.75C653.022 352.75 652.068 352.983 651.227 353.449C650.397 353.903 649.738 354.54 649.249 355.358C648.772 356.176 648.533 357.119 648.533 358.188V373H641.272ZM675.648 373.494C673.978 373.494 672.489 373.205 671.182 372.625C669.875 372.034 668.841 371.165 668.08 370.017C667.33 368.858 666.955 367.415 666.955 365.688C666.955 364.233 667.222 363.011 667.756 362.023C668.29 361.034 669.017 360.239 669.938 359.636C670.858 359.034 671.904 358.58 673.074 358.273C674.256 357.966 675.495 357.75 676.79 357.625C678.313 357.466 679.54 357.318 680.472 357.182C681.404 357.034 682.08 356.818 682.5 356.534C682.921 356.25 683.131 355.83 683.131 355.273V355.17C683.131 354.091 682.79 353.256 682.108 352.665C681.438 352.074 680.483 351.778 679.245 351.778C677.938 351.778 676.898 352.068 676.125 352.648C675.353 353.216 674.841 353.932 674.591 354.795L667.875 354.25C668.216 352.659 668.887 351.284 669.887 350.125C670.887 348.955 672.176 348.057 673.756 347.432C675.347 346.795 677.188 346.477 679.279 346.477C680.733 346.477 682.125 346.648 683.455 346.989C684.796 347.33 685.983 347.858 687.017 348.574C688.063 349.29 688.887 350.21 689.489 351.335C690.091 352.449 690.392 353.784 690.392 355.341V373H683.506V369.369H683.301C682.881 370.188 682.318 370.909 681.614 371.534C680.909 372.148 680.063 372.631 679.074 372.983C678.086 373.324 676.943 373.494 675.648 373.494ZM677.728 368.483C678.796 368.483 679.739 368.273 680.557 367.852C681.375 367.42 682.017 366.841 682.483 366.114C682.949 365.386 683.182 364.562 683.182 363.642V360.864C682.955 361.011 682.642 361.148 682.245 361.273C681.858 361.386 681.421 361.494 680.932 361.597C680.443 361.687 679.955 361.773 679.466 361.852C678.978 361.92 678.534 361.983 678.137 362.04C677.284 362.165 676.54 362.364 675.904 362.636C675.267 362.909 674.773 363.278 674.421 363.744C674.068 364.199 673.892 364.767 673.892 365.449C673.892 366.438 674.25 367.193 674.966 367.716C675.693 368.227 676.614 368.483 677.728 368.483ZM701.367 357.864V373H694.106V346.818H701.026V351.438H701.333C701.913 349.915 702.884 348.71 704.248 347.824C705.612 346.926 707.265 346.477 709.208 346.477C711.026 346.477 712.612 346.875 713.964 347.67C715.316 348.466 716.367 349.602 717.117 351.08C717.867 352.545 718.242 354.295 718.242 356.33V373H710.981V357.625C710.992 356.023 710.583 354.773 709.754 353.875C708.924 352.966 707.782 352.511 706.327 352.511C705.35 352.511 704.487 352.722 703.737 353.142C702.998 353.562 702.418 354.176 701.998 354.983C701.589 355.778 701.379 356.739 701.367 357.864ZM733.875 373.511C731.227 373.511 728.937 372.949 727.005 371.824C725.085 370.687 723.602 369.108 722.557 367.085C721.511 365.051 720.988 362.693 720.988 360.011C720.988 357.307 721.511 354.943 722.557 352.92C723.602 350.886 725.085 349.307 727.005 348.182C728.937 347.045 731.227 346.477 733.875 346.477C736.522 346.477 738.807 347.045 740.727 348.182C742.659 349.307 744.147 350.886 745.193 352.92C746.238 354.943 746.761 357.307 746.761 360.011C746.761 362.693 746.238 365.051 745.193 367.085C744.147 369.108 742.659 370.687 740.727 371.824C738.807 372.949 736.522 373.511 733.875 373.511ZM733.909 367.886C735.113 367.886 736.119 367.545 736.926 366.864C737.733 366.17 738.341 365.227 738.75 364.034C739.17 362.841 739.38 361.483 739.38 359.96C739.38 358.438 739.17 357.08 738.75 355.886C738.341 354.693 737.733 353.75 736.926 353.057C736.119 352.364 735.113 352.017 733.909 352.017C732.693 352.017 731.67 352.364 730.841 353.057C730.022 353.75 729.403 354.693 728.983 355.886C728.574 357.08 728.369 358.438 728.369 359.96C728.369 361.483 728.574 362.841 728.983 364.034C729.403 365.227 730.022 366.17 730.841 366.864C731.67 367.545 732.693 367.886 733.909 367.886ZM763.489 346.818V352.273H747.722V346.818H763.489ZM751.301 340.545H758.563V364.955C758.563 365.625 758.665 366.148 758.87 366.523C759.074 366.886 759.358 367.142 759.722 367.29C760.097 367.437 760.529 367.511 761.017 367.511C761.358 367.511 761.699 367.483 762.04 367.426C762.381 367.358 762.642 367.307 762.824 367.273L763.966 372.676C763.603 372.79 763.091 372.92 762.432 373.068C761.773 373.227 760.972 373.324 760.029 373.358C758.279 373.426 756.745 373.193 755.426 372.659C754.12 372.125 753.103 371.295 752.375 370.17C751.648 369.045 751.29 367.625 751.301 365.909V340.545ZM774.123 357.864V373H766.861V338.091H773.918V351.438H774.225C774.816 349.892 775.771 348.682 777.089 347.807C778.407 346.92 780.06 346.477 782.049 346.477C783.867 346.477 785.452 346.875 786.805 347.67C788.168 348.455 789.225 349.585 789.975 351.062C790.736 352.528 791.111 354.284 791.1 356.33V373H783.839V357.625C783.85 356.011 783.441 354.756 782.611 353.858C781.793 352.96 780.646 352.511 779.168 352.511C778.18 352.511 777.305 352.722 776.543 353.142C775.793 353.562 775.202 354.176 774.771 354.983C774.35 355.778 774.134 356.739 774.123 357.864ZM806.826 373.511C804.133 373.511 801.815 372.966 799.872 371.875C797.94 370.773 796.451 369.216 795.406 367.205C794.361 365.182 793.838 362.79 793.838 360.028C793.838 357.335 794.361 354.972 795.406 352.938C796.451 350.903 797.923 349.318 799.821 348.182C801.73 347.045 803.968 346.477 806.537 346.477C808.264 346.477 809.872 346.756 811.361 347.312C812.861 347.858 814.167 348.682 815.281 349.784C816.406 350.886 817.281 352.273 817.906 353.943C818.531 355.602 818.843 357.545 818.843 359.773V361.767H796.736V357.267H812.008C812.008 356.222 811.781 355.295 811.326 354.489C810.872 353.682 810.241 353.051 809.434 352.597C808.639 352.131 807.713 351.898 806.656 351.898C805.554 351.898 804.576 352.153 803.724 352.665C802.883 353.165 802.224 353.841 801.747 354.693C801.27 355.534 801.025 356.472 801.014 357.506V361.784C801.014 363.08 801.253 364.199 801.73 365.142C802.218 366.085 802.906 366.812 803.792 367.324C804.679 367.835 805.73 368.091 806.946 368.091C807.753 368.091 808.491 367.977 809.162 367.75C809.832 367.523 810.406 367.182 810.883 366.727C811.361 366.273 811.724 365.716 811.974 365.057L818.69 365.5C818.349 367.114 817.65 368.523 816.593 369.727C815.548 370.92 814.196 371.852 812.537 372.523C810.889 373.182 808.986 373.511 806.826 373.511ZM821.662 373V346.818H828.702V351.386H828.975C829.452 349.761 830.253 348.534 831.378 347.705C832.503 346.864 833.798 346.443 835.264 346.443C835.628 346.443 836.02 346.466 836.441 346.511C836.861 346.557 837.23 346.619 837.548 346.699V353.142C837.208 353.04 836.736 352.949 836.134 352.869C835.531 352.79 834.98 352.75 834.48 352.75C833.412 352.75 832.458 352.983 831.617 353.449C830.787 353.903 830.128 354.54 829.639 355.358C829.162 356.176 828.923 357.119 828.923 358.188V373H821.662ZM848.572 382.818V346.818H855.731V351.216H856.055C856.373 350.511 856.833 349.795 857.436 349.068C858.049 348.33 858.845 347.716 859.822 347.227C860.811 346.727 862.038 346.477 863.504 346.477C865.413 346.477 867.174 346.977 868.788 347.977C870.402 348.966 871.691 350.46 872.657 352.46C873.623 354.449 874.106 356.943 874.106 359.943C874.106 362.864 873.635 365.33 872.691 367.341C871.76 369.341 870.487 370.858 868.873 371.892C867.271 372.915 865.476 373.426 863.487 373.426C862.078 373.426 860.879 373.193 859.89 372.727C858.913 372.261 858.112 371.676 857.487 370.972C856.862 370.256 856.385 369.534 856.055 368.807H855.833V382.818H848.572ZM855.68 359.909C855.68 361.466 855.896 362.824 856.328 363.983C856.76 365.142 857.385 366.045 858.203 366.693C859.021 367.33 860.015 367.648 861.186 367.648C862.368 367.648 863.368 367.324 864.186 366.676C865.004 366.017 865.623 365.108 866.044 363.949C866.476 362.778 866.691 361.432 866.691 359.909C866.691 358.398 866.481 357.068 866.061 355.92C865.64 354.773 865.021 353.875 864.203 353.227C863.385 352.58 862.379 352.256 861.186 352.256C860.004 352.256 859.004 352.568 858.186 353.193C857.379 353.818 856.76 354.705 856.328 355.852C855.896 357 855.68 358.352 855.68 359.909ZM877.027 373V346.818H884.067V351.386H884.34C884.817 349.761 885.618 348.534 886.743 347.705C887.868 346.864 889.163 346.443 890.629 346.443C890.993 346.443 891.385 346.466 891.806 346.511C892.226 346.557 892.595 346.619 892.913 346.699V353.142C892.573 353.04 892.101 352.949 891.499 352.869C890.896 352.79 890.345 352.75 889.845 352.75C888.777 352.75 887.823 352.983 886.982 353.449C886.152 353.903 885.493 354.54 885.004 355.358C884.527 356.176 884.288 357.119 884.288 358.188V373H877.027ZM905.461 373.511C902.768 373.511 900.449 372.966 898.506 371.875C896.574 370.773 895.086 369.216 894.04 367.205C892.995 365.182 892.472 362.79 892.472 360.028C892.472 357.335 892.995 354.972 894.04 352.938C895.086 350.903 896.557 349.318 898.455 348.182C900.364 347.045 902.603 346.477 905.171 346.477C906.898 346.477 908.506 346.756 909.995 347.312C911.495 347.858 912.802 348.682 913.915 349.784C915.04 350.886 915.915 352.273 916.54 353.943C917.165 355.602 917.478 357.545 917.478 359.773V361.767H895.37V357.267H910.643C910.643 356.222 910.415 355.295 909.961 354.489C909.506 353.682 908.876 353.051 908.069 352.597C907.273 352.131 906.347 351.898 905.29 351.898C904.188 351.898 903.211 352.153 902.359 352.665C901.518 353.165 900.859 353.841 900.381 354.693C899.904 355.534 899.66 356.472 899.648 357.506V361.784C899.648 363.08 899.887 364.199 900.364 365.142C900.853 366.085 901.54 366.812 902.427 367.324C903.313 367.835 904.364 368.091 905.58 368.091C906.387 368.091 907.126 367.977 907.796 367.75C908.466 367.523 909.04 367.182 909.518 366.727C909.995 366.273 910.359 365.716 910.609 365.057L917.324 365.5C916.984 367.114 916.285 368.523 915.228 369.727C914.182 370.92 912.83 371.852 911.171 372.523C909.523 373.182 907.62 373.511 905.461 373.511ZM942.081 354.284L935.433 354.693C935.319 354.125 935.075 353.614 934.7 353.159C934.325 352.693 933.831 352.324 933.217 352.051C932.615 351.767 931.893 351.625 931.052 351.625C929.927 351.625 928.978 351.864 928.206 352.341C927.433 352.807 927.046 353.432 927.046 354.216C927.046 354.841 927.296 355.369 927.796 355.801C928.296 356.233 929.154 356.58 930.37 356.841L935.109 357.795C937.654 358.318 939.552 359.159 940.802 360.318C942.052 361.477 942.677 363 942.677 364.886C942.677 366.602 942.171 368.108 941.16 369.403C940.16 370.699 938.785 371.71 937.035 372.438C935.296 373.153 933.291 373.511 931.018 373.511C927.552 373.511 924.791 372.79 922.734 371.347C920.689 369.892 919.49 367.915 919.137 365.415L926.279 365.04C926.495 366.097 927.018 366.903 927.848 367.46C928.677 368.006 929.74 368.278 931.035 368.278C932.308 368.278 933.331 368.034 934.103 367.545C934.887 367.045 935.285 366.403 935.296 365.619C935.285 364.96 935.007 364.42 934.461 364C933.916 363.568 933.075 363.239 931.939 363.011L927.404 362.108C924.848 361.597 922.944 360.71 921.694 359.449C920.456 358.187 919.836 356.58 919.836 354.625C919.836 352.943 920.291 351.494 921.2 350.278C922.12 349.062 923.41 348.125 925.069 347.466C926.74 346.807 928.694 346.477 930.933 346.477C934.24 346.477 936.842 347.176 938.74 348.574C940.649 349.972 941.762 351.875 942.081 354.284ZM957.261 373.511C954.568 373.511 952.25 372.966 950.307 371.875C948.375 370.773 946.886 369.216 945.841 367.205C944.796 365.182 944.273 362.79 944.273 360.028C944.273 357.335 944.796 354.972 945.841 352.938C946.886 350.903 948.358 349.318 950.256 348.182C952.165 347.045 954.403 346.477 956.972 346.477C958.699 346.477 960.307 346.756 961.796 347.312C963.296 347.858 964.602 348.682 965.716 349.784C966.841 350.886 967.716 352.273 968.341 353.943C968.966 355.602 969.278 357.545 969.278 359.773V361.767H947.171V357.267H962.443C962.443 356.222 962.216 355.295 961.761 354.489C961.307 353.682 960.676 353.051 959.869 352.597C959.074 352.131 958.148 351.898 957.091 351.898C955.989 351.898 955.011 352.153 954.159 352.665C953.318 353.165 952.659 353.841 952.182 354.693C951.705 355.534 951.46 356.472 951.449 357.506V361.784C951.449 363.08 951.688 364.199 952.165 365.142C952.653 366.085 953.341 366.812 954.227 367.324C955.114 367.835 956.165 368.091 957.381 368.091C958.188 368.091 958.926 367.977 959.597 367.75C960.267 367.523 960.841 367.182 961.318 366.727C961.796 366.273 962.159 365.716 962.409 365.057L969.125 365.5C968.784 367.114 968.085 368.523 967.028 369.727C965.983 370.92 964.631 371.852 962.972 372.523C961.324 373.182 959.421 373.511 957.261 373.511ZM979.358 357.864V373H972.097V346.818H979.018V351.438H979.324C979.904 349.915 980.876 348.71 982.239 347.824C983.603 346.926 985.256 346.477 987.199 346.477C989.018 346.477 990.603 346.875 991.955 347.67C993.307 348.466 994.358 349.602 995.108 351.08C995.858 352.545 996.233 354.295 996.233 356.33V373H988.972V357.625C988.983 356.023 988.574 354.773 987.745 353.875C986.915 352.966 985.773 352.511 984.319 352.511C983.341 352.511 982.478 352.722 981.728 353.142C980.989 353.562 980.41 354.176 979.989 354.983C979.58 355.778 979.37 356.739 979.358 357.864ZM1013.96 346.818V352.273H998.196V346.818H1013.96ZM1001.78 340.545H1009.04V364.955C1009.04 365.625 1009.14 366.148 1009.34 366.523C1009.55 366.886 1009.83 367.142 1010.2 367.29C1010.57 367.437 1011 367.511 1011.49 367.511C1011.83 367.511 1012.17 367.483 1012.51 367.426C1012.85 367.358 1013.12 367.307 1013.3 367.273L1014.44 372.676C1014.08 372.79 1013.56 372.92 1012.91 373.068C1012.25 373.227 1011.45 373.324 1010.5 373.358C1008.75 373.426 1007.22 373.193 1005.9 372.659C1004.59 372.125 1003.58 371.295 1002.85 370.17C1002.12 369.045 1001.76 367.625 1001.78 365.909V340.545ZM1024.24 373.494C1022.57 373.494 1021.08 373.205 1019.77 372.625C1018.47 372.034 1017.43 371.165 1016.67 370.017C1015.92 368.858 1015.55 367.415 1015.55 365.688C1015.55 364.233 1015.81 363.011 1016.35 362.023C1016.88 361.034 1017.61 360.239 1018.53 359.636C1019.45 359.034 1020.49 358.58 1021.66 358.273C1022.85 357.966 1024.09 357.75 1025.38 357.625C1026.9 357.466 1028.13 357.318 1029.06 357.182C1029.99 357.034 1030.67 356.818 1031.09 356.534C1031.51 356.25 1031.72 355.83 1031.72 355.273V355.17C1031.72 354.091 1031.38 353.256 1030.7 352.665C1030.03 352.074 1029.07 351.778 1027.84 351.778C1026.53 351.778 1025.49 352.068 1024.72 352.648C1023.94 353.216 1023.43 353.932 1023.18 354.795L1016.47 354.25C1016.81 352.659 1017.48 351.284 1018.48 350.125C1019.48 348.955 1020.77 348.057 1022.35 347.432C1023.94 346.795 1025.78 346.477 1027.87 346.477C1029.32 346.477 1030.72 346.648 1032.05 346.989C1033.39 347.33 1034.57 347.858 1035.61 348.574C1036.65 349.29 1037.48 350.21 1038.08 351.335C1038.68 352.449 1038.98 353.784 1038.98 355.341V373H1032.1V369.369H1031.89C1031.47 370.188 1030.91 370.909 1030.2 371.534C1029.5 372.148 1028.65 372.631 1027.66 372.983C1026.68 373.324 1025.53 373.494 1024.24 373.494ZM1026.32 368.483C1027.39 368.483 1028.33 368.273 1029.15 367.852C1029.97 367.42 1030.61 366.841 1031.07 366.114C1031.54 365.386 1031.77 364.562 1031.77 363.642V360.864C1031.55 361.011 1031.23 361.148 1030.84 361.273C1030.45 361.386 1030.01 361.494 1029.52 361.597C1029.03 361.687 1028.55 361.773 1028.06 361.852C1027.57 361.92 1027.12 361.983 1026.73 362.04C1025.88 362.165 1025.13 362.364 1024.49 362.636C1023.86 362.909 1023.36 363.278 1023.01 363.744C1022.66 364.199 1022.48 364.767 1022.48 365.449C1022.48 366.438 1022.84 367.193 1023.56 367.716C1024.28 368.227 1025.2 368.483 1026.32 368.483ZM1056.62 346.818V352.273H1040.86V346.818H1056.62ZM1044.44 340.545H1051.7V364.955C1051.7 365.625 1051.8 366.148 1052 366.523C1052.21 366.886 1052.49 367.142 1052.86 367.29C1053.23 367.437 1053.66 367.511 1054.15 367.511C1054.49 367.511 1054.83 367.483 1055.17 367.426C1055.51 367.358 1055.78 367.307 1055.96 367.273L1057.1 372.676C1056.74 372.79 1056.22 372.92 1055.57 373.068C1054.91 373.227 1054.11 373.324 1053.16 373.358C1051.41 373.426 1049.88 373.193 1048.56 372.659C1047.25 372.125 1046.24 371.295 1045.51 370.17C1044.78 369.045 1044.42 367.625 1044.44 365.909V340.545ZM1059.43 373V346.818H1066.69V373H1059.43ZM1063.08 343.443C1062 343.443 1061.07 343.085 1060.3 342.369C1059.54 341.642 1059.16 340.773 1059.16 339.761C1059.16 338.761 1059.54 337.903 1060.3 337.188C1061.07 336.46 1062 336.097 1063.08 336.097C1064.16 336.097 1065.08 336.46 1065.84 337.188C1066.61 337.903 1067 338.761 1067 339.761C1067 340.773 1066.61 341.642 1065.84 342.369C1065.08 343.085 1064.16 343.443 1063.08 343.443ZM1082.42 373.511C1079.77 373.511 1077.48 372.949 1075.55 371.824C1073.63 370.687 1072.15 369.108 1071.1 367.085C1070.06 365.051 1069.53 362.693 1069.53 360.011C1069.53 357.307 1070.06 354.943 1071.1 352.92C1072.15 350.886 1073.63 349.307 1075.55 348.182C1077.48 347.045 1079.77 346.477 1082.42 346.477C1085.07 346.477 1087.35 347.045 1089.27 348.182C1091.2 349.307 1092.69 350.886 1093.74 352.92C1094.78 354.943 1095.31 357.307 1095.31 360.011C1095.31 362.693 1094.78 365.051 1093.74 367.085C1092.69 369.108 1091.2 370.687 1089.27 371.824C1087.35 372.949 1085.07 373.511 1082.42 373.511ZM1082.45 367.886C1083.66 367.886 1084.66 367.545 1085.47 366.864C1086.28 366.17 1086.89 365.227 1087.3 364.034C1087.72 362.841 1087.93 361.483 1087.93 359.96C1087.93 358.438 1087.72 357.08 1087.3 355.886C1086.89 354.693 1086.28 353.75 1085.47 353.057C1084.66 352.364 1083.66 352.017 1082.45 352.017C1081.24 352.017 1080.22 352.364 1079.39 353.057C1078.57 353.75 1077.95 354.693 1077.53 355.886C1077.12 357.08 1076.91 358.438 1076.91 359.96C1076.91 361.483 1077.12 362.841 1077.53 364.034C1077.95 365.227 1078.57 366.17 1079.39 366.864C1080.22 367.545 1081.24 367.886 1082.45 367.886ZM1105.37 357.864V373H1098.11V346.818H1105.03V351.438H1105.34C1105.92 349.915 1106.89 348.71 1108.25 347.824C1109.61 346.926 1111.27 346.477 1113.21 346.477C1115.03 346.477 1116.61 346.875 1117.97 347.67C1119.32 348.466 1120.37 349.602 1121.12 351.08C1121.87 352.545 1122.24 354.295 1122.24 356.33V373H1114.98V357.625C1114.99 356.023 1114.59 354.773 1113.76 353.875C1112.93 352.966 1111.78 352.511 1110.33 352.511C1109.35 352.511 1108.49 352.722 1107.74 353.142C1107 353.562 1106.42 354.176 1106 354.983C1105.59 355.778 1105.38 356.739 1105.37 357.864Z" fill="white"/>
<rect x="45" y="173" width="275" height="200" rx="10" fill="#21293A"/>
<rect x="45" y="408" width="275" height="200" rx="10" fill="#171C27"/>
<rect x="45" y="643" width="275" height="200" rx="10" fill="#12151B"/>
<g clip-path="url(#clip0_1_10)">
<rect x="63" y="193" width="196" height="20" rx="10" fill="#364153"/>
<rect x="63" y="223" width="140" height="20" rx="10" fill="#364153"/>
</g>
<g filter="url(#filter1_b_1_10)">
<mask id="path-9-inside-1_1_10" fill="white">
<path d="M0 35C0 15.67 15.67 0 35 0H1315C1334.33 0 1350 15.67 1350 35V67H0V35Z"/>
</mask>
<path d="M0 35C0 15.67 15.67 0 35 0H1315C1334.33 0 1350 15.67 1350 35V67H0V35Z" fill="white" fill-opacity="0.35"/>
<path d="M-1 35C-1 15.1177 15.1177 -1 35 -1H1315C1334.88 -1 1351 15.1177 1351 35H1349C1349 16.2223 1333.78 1 1315 1H35C16.2223 1 1 16.2223 1 35H-1ZM1350 67H0H1350ZM-1 67V35C-1 15.1177 15.1177 -1 35 -1V1C16.2223 1 1 16.2223 1 35V67H-1ZM1315 -1C1334.88 -1 1351 15.1177 1351 35V67H1349V35C1349 16.2223 1333.78 1 1315 1V-1Z" fill="white" fill-opacity="0.2" mask="url(#path-9-inside-1_1_10)"/>
</g>
<circle cx="1299.5" cy="33.5" r="12.5" fill="#A7C755"/>
<circle cx="1264.5" cy="33.5" r="12.5" fill="#E5BB31"/>
<circle cx="1229.5" cy="33.5" r="12.5" fill="#A73655"/>
<rect x="1034" y="867.223" width="360" height="100" rx="20" transform="rotate(-15.668 1034 867.223)" fill="url(#paint2_linear_1_10)"/>
<path d="M1097.42 893.335C1096.9 892.031 1096 891.155 1094.73 890.705C1093.46 890.253 1091.98 890.264 1090.29 890.738C1089.1 891.072 1088.13 891.538 1087.38 892.136C1086.63 892.734 1086.11 893.403 1085.83 894.146C1085.55 894.888 1085.52 895.655 1085.73 896.448C1085.92 897.104 1086.22 897.632 1086.66 898.03C1087.1 898.426 1087.63 898.72 1088.25 898.912C1088.86 899.093 1089.52 899.208 1090.22 899.255C1090.92 899.302 1091.61 899.312 1092.3 899.285L1095.46 899.195C1096.73 899.138 1097.98 899.192 1099.21 899.356C1100.45 899.517 1101.61 899.834 1102.68 900.307C1103.76 900.778 1104.7 901.449 1105.5 902.321C1106.3 903.192 1106.89 904.31 1107.27 905.675C1107.79 907.521 1107.78 909.279 1107.23 910.949C1106.67 912.609 1105.62 914.084 1104.05 915.374C1102.5 916.652 1100.46 917.644 1097.93 918.352C1095.48 919.04 1093.25 919.257 1091.23 919.004C1089.22 918.749 1087.5 918.035 1086.08 916.863C1084.67 915.689 1083.63 914.067 1082.96 911.997L1088.57 910.422C1088.96 911.497 1089.56 912.315 1090.36 912.876C1091.16 913.437 1092.08 913.764 1093.14 913.855C1094.2 913.944 1095.33 913.821 1096.52 913.487C1097.76 913.139 1098.8 912.65 1099.63 912.019C1100.46 911.374 1101.05 910.644 1101.4 909.828C1101.74 909.001 1101.79 908.135 1101.55 907.23C1101.31 906.412 1100.88 905.802 1100.26 905.401C1099.63 904.99 1098.85 904.724 1097.89 904.604C1096.95 904.471 1095.87 904.419 1094.66 904.448L1090.82 904.53C1088.04 904.592 1085.7 904.157 1083.82 903.226C1081.94 902.281 1080.68 900.681 1080.05 898.424C1079.52 896.568 1079.57 894.801 1080.19 893.124C1080.81 891.444 1081.89 889.975 1083.41 888.716C1084.94 887.448 1086.8 886.504 1089.01 885.886C1091.25 885.258 1093.31 885.099 1095.22 885.406C1097.12 885.701 1098.75 886.4 1100.1 887.504C1101.45 888.598 1102.39 890.028 1102.92 891.794L1097.42 893.335ZM1121.53 911.733C1120.03 912.153 1118.61 912.265 1117.26 912.068C1115.92 911.858 1114.75 911.322 1113.76 910.462C1112.77 909.598 1112.06 908.392 1111.63 906.843C1111.26 905.509 1111.19 904.337 1111.44 903.327C1111.69 902.317 1112.16 901.431 1112.87 900.67C1113.57 899.908 1114.42 899.244 1115.41 898.678C1116.41 898.099 1117.47 897.587 1118.58 897.141C1119.93 896.609 1121.02 896.166 1121.85 895.811C1122.67 895.447 1123.25 895.086 1123.57 894.731C1123.9 894.362 1123.99 893.911 1123.84 893.378L1123.81 893.286C1123.48 892.126 1122.89 891.325 1122.02 890.882C1121.16 890.439 1120.08 890.399 1118.79 890.761C1117.42 891.144 1116.42 891.745 1115.79 892.564C1115.17 893.381 1114.83 894.233 1114.78 895.121L1109.37 895.841C1109.38 894.29 1109.72 892.9 1110.39 891.671C1111.07 890.432 1112.01 889.38 1113.24 888.515C1114.47 887.64 1115.91 886.971 1117.56 886.508C1118.7 886.188 1119.87 886.004 1121.07 885.954C1122.28 885.904 1123.43 886.056 1124.54 886.41C1125.64 886.753 1126.62 887.369 1127.48 888.257C1128.35 889.142 1129 890.369 1129.44 891.939L1133.88 907.756L1128.52 909.258L1127.61 906.011L1127.43 906.063C1127.27 906.814 1126.97 907.564 1126.51 908.311C1126.07 909.045 1125.43 909.715 1124.61 910.323C1123.79 910.918 1122.76 911.388 1121.53 911.733ZM1121.83 907.234C1122.95 906.921 1123.86 906.428 1124.55 905.757C1125.25 905.076 1125.71 904.304 1125.94 903.442C1126.19 902.576 1126.19 901.708 1125.94 900.836L1125.16 898.051C1125.03 898.244 1124.77 898.46 1124.38 898.701C1124.01 898.94 1123.58 899.177 1123.09 899.413C1122.6 899.649 1122.12 899.874 1121.63 900.086C1121.15 900.299 1120.73 900.483 1120.38 900.638C1119.58 900.984 1118.89 901.377 1118.3 901.817C1117.72 902.258 1117.3 902.762 1117.05 903.33C1116.8 903.888 1116.77 904.526 1116.97 905.244C1117.26 906.27 1117.85 906.939 1118.75 907.252C1119.64 907.566 1120.67 907.56 1121.83 907.234ZM1153.11 876.868L1151.32 902.862L1145.17 904.588L1130.13 883.315L1136.06 881.65L1146.42 897.682L1146.67 897.613L1147.19 878.529L1153.11 876.868ZM1173.38 897.173C1171.01 897.837 1168.83 897.919 1166.83 897.418C1164.84 896.903 1163.13 895.867 1161.69 894.311C1160.26 892.744 1159.19 890.724 1158.5 888.252C1157.82 885.821 1157.68 883.558 1158.09 881.463C1158.51 879.355 1159.41 877.554 1160.79 876.059C1162.17 874.554 1163.99 873.485 1166.25 872.852C1167.7 872.443 1169.14 872.294 1170.57 872.403C1172 872.499 1173.35 872.895 1174.62 873.591C1175.9 874.283 1177.04 875.303 1178.03 876.649C1179.03 877.986 1179.82 879.69 1180.4 881.762L1180.88 883.47L1161.5 888.903L1160.45 885.149L1174.48 881.213C1174.17 880.149 1173.68 879.265 1172.99 878.561C1172.31 877.847 1171.49 877.362 1170.54 877.107C1169.61 876.849 1168.61 876.87 1167.54 877.169C1166.4 877.489 1165.48 878.046 1164.77 878.842C1164.06 879.627 1163.59 880.534 1163.36 881.561C1163.14 882.576 1163.17 883.613 1163.45 884.672L1164.37 887.949C1164.76 889.324 1165.34 890.433 1166.12 891.277C1166.9 892.11 1167.81 892.662 1168.86 892.932C1169.9 893.192 1171.03 893.152 1172.24 892.812C1173.05 892.585 1173.76 892.266 1174.35 891.857C1174.94 891.436 1175.41 890.933 1175.77 890.347C1176.12 889.76 1176.33 889.099 1176.39 888.363L1181.75 887.489C1181.81 888.956 1181.52 890.331 1180.89 891.616C1180.26 892.888 1179.31 894.005 1178.04 894.969C1176.77 895.923 1175.22 896.658 1173.38 897.173ZM1204.39 862.484L1205.6 866.792L1192.02 870.603L1190.81 866.295L1204.39 862.484ZM1192.57 859.692L1198.14 858.129L1204.37 880.316C1204.58 881.065 1204.85 881.608 1205.19 881.945C1205.53 882.268 1205.92 882.449 1206.34 882.486C1206.76 882.523 1207.2 882.477 1207.66 882.347C1208.01 882.25 1208.32 882.135 1208.59 882.003C1208.87 881.868 1209.09 881.759 1209.23 881.675L1211.39 885.766C1211.12 885.952 1210.73 886.184 1210.21 886.462C1209.7 886.738 1209.05 886.997 1208.27 887.239C1206.88 887.671 1205.57 887.813 1204.32 887.665C1203.07 887.507 1201.98 887.028 1201.05 886.227C1200.12 885.424 1199.46 884.282 1199.06 882.802L1192.57 859.692ZM1225.87 882.452C1223.56 883.099 1221.42 883.153 1219.44 882.612C1217.46 882.071 1215.75 881.019 1214.3 879.455C1212.87 877.888 1211.81 875.884 1211.12 873.442C1210.44 871.001 1210.3 868.733 1210.71 866.638C1211.13 864.54 1212.04 862.746 1213.45 861.256C1214.86 859.765 1216.71 858.697 1219.02 858.049C1221.33 857.402 1223.47 857.349 1225.45 857.889C1227.43 858.43 1229.13 859.489 1230.57 861.066C1232.02 862.641 1233.09 864.648 1233.77 867.09C1234.46 869.531 1234.59 871.796 1234.17 873.883C1233.76 875.968 1232.85 877.755 1231.44 879.246C1230.03 880.736 1228.17 881.805 1225.87 882.452ZM1224.65 877.981C1225.9 877.63 1226.85 876.993 1227.5 876.07C1228.14 875.137 1228.5 874.028 1228.59 872.743C1228.68 871.456 1228.52 870.094 1228.12 868.658C1227.72 867.212 1227.14 865.963 1226.39 864.912C1225.65 863.847 1224.76 863.084 1223.72 862.622C1222.69 862.161 1221.54 862.106 1220.29 862.457C1219.01 862.816 1218.04 863.464 1217.38 864.4C1216.74 865.334 1216.37 866.449 1216.28 867.747C1216.2 869.031 1216.36 870.397 1216.77 871.843C1217.17 873.279 1217.74 874.524 1218.48 875.579C1219.23 876.63 1220.12 877.387 1221.16 877.848C1222.2 878.297 1223.36 878.341 1224.65 877.981ZM1252.78 874.405L1243.94 842.893L1264.13 837.231L1265.47 842.016L1250.99 846.077L1253.39 854.632L1266.49 850.96L1267.83 855.745L1254.74 859.417L1258.49 872.803L1252.78 874.405ZM1286.63 865.41C1284.32 866.057 1282.18 866.11 1280.2 865.569C1278.22 865.029 1276.51 863.976 1275.06 862.412C1273.63 860.845 1272.57 858.841 1271.88 856.4C1271.2 853.959 1271.06 851.69 1271.47 849.595C1271.89 847.497 1272.8 845.703 1274.21 844.213C1275.62 842.723 1277.47 841.654 1279.78 841.007C1282.09 840.359 1284.23 840.306 1286.21 840.847C1288.19 841.388 1289.9 842.447 1291.33 844.024C1292.78 845.598 1293.85 847.606 1294.53 850.047C1295.22 852.489 1295.35 854.753 1294.93 856.841C1294.52 858.925 1293.61 860.713 1292.2 862.203C1290.79 863.693 1288.93 864.762 1286.63 865.41ZM1285.41 860.939C1286.66 860.588 1287.61 859.951 1288.26 859.028C1288.9 858.094 1289.27 856.985 1289.35 855.701C1289.44 854.413 1289.29 853.052 1288.88 851.616C1288.48 850.169 1287.9 848.921 1287.15 847.869C1286.41 846.805 1285.52 846.042 1284.48 845.58C1283.45 845.118 1282.3 845.063 1281.05 845.414C1279.77 845.774 1278.8 846.422 1278.14 847.358C1277.5 848.291 1277.13 849.407 1277.04 850.705C1276.96 851.989 1277.12 853.354 1277.53 854.801C1277.93 856.237 1278.5 857.482 1279.24 858.536C1279.99 859.588 1280.88 860.344 1281.92 860.806C1282.96 861.254 1284.12 861.299 1285.41 860.939ZM1299.28 827.372L1308.12 858.883L1302.55 860.446L1293.71 828.934L1299.28 827.372ZM1322.73 855.232C1320.88 855.753 1319.08 855.742 1317.35 855.2C1315.61 854.657 1314.07 853.598 1312.7 852.021C1311.34 850.444 1310.3 848.358 1309.57 845.763C1308.84 843.137 1308.64 840.8 1309 838.753C1309.36 836.693 1310.15 834.994 1311.37 833.657C1312.59 832.309 1314.1 831.381 1315.92 830.872C1317.3 830.483 1318.51 830.4 1319.53 830.621C1320.55 830.833 1321.42 831.193 1322.13 831.703C1322.83 832.202 1323.41 832.699 1323.85 833.193L1324.09 833.128L1320.78 821.342L1326.36 819.776L1335.2 851.287L1329.73 852.823L1328.68 849.1L1328.34 849.195C1328.22 849.85 1327.97 850.576 1327.61 851.375C1327.24 852.164 1326.68 852.909 1325.91 853.61C1325.15 854.312 1324.09 854.853 1322.73 855.232ZM1323.01 850.227C1324.19 849.896 1325.1 849.296 1325.75 848.427C1326.4 847.548 1326.78 846.473 1326.89 845.204C1327 843.934 1326.84 842.535 1326.41 841.006C1325.98 839.478 1325.39 838.21 1324.65 837.203C1323.91 836.192 1323.04 835.491 1322.03 835.098C1321.04 834.703 1319.94 834.673 1318.74 835.01C1317.5 835.358 1316.55 835.972 1315.9 836.851C1315.25 837.73 1314.88 838.798 1314.78 840.055C1314.67 841.311 1314.83 842.673 1315.24 844.14C1315.65 845.617 1316.23 846.876 1316.98 847.917C1317.73 848.945 1318.62 849.676 1319.64 850.11C1320.66 850.53 1321.79 850.569 1323.01 850.227ZM1351.73 847.149C1349.36 847.814 1347.18 847.895 1345.18 847.394C1343.18 846.879 1341.47 845.844 1340.04 844.287C1338.6 842.72 1337.54 840.701 1336.85 838.229C1336.17 835.798 1336.03 833.535 1336.44 831.44C1336.85 829.331 1337.75 827.53 1339.14 826.035C1340.52 824.53 1342.34 823.461 1344.59 822.828C1346.05 822.42 1347.49 822.27 1348.92 822.379C1350.35 822.476 1351.7 822.871 1352.97 823.567C1354.24 824.259 1355.38 825.279 1356.38 826.626C1357.37 827.962 1358.16 829.666 1358.74 831.738L1359.22 833.446L1339.85 838.88L1338.8 835.125L1352.83 831.19C1352.52 830.126 1352.02 829.242 1351.34 828.537C1350.65 827.823 1349.84 827.338 1348.89 827.083C1347.96 826.826 1346.95 826.846 1345.89 827.146C1344.75 827.465 1343.83 828.022 1343.12 828.818C1342.41 829.603 1341.94 830.51 1341.71 831.537C1341.48 832.552 1341.52 833.589 1341.8 834.648L1342.72 837.926C1343.11 839.3 1343.69 840.409 1344.47 841.253C1345.24 842.086 1346.16 842.638 1347.2 842.908C1348.25 843.168 1349.38 843.128 1350.59 842.788C1351.4 842.561 1352.1 842.243 1352.7 841.833C1353.29 841.413 1353.76 840.909 1354.11 840.323C1354.47 839.736 1354.68 839.075 1354.74 838.339L1360.1 837.465C1360.16 838.932 1359.87 840.308 1359.23 841.592C1358.61 842.864 1357.66 843.982 1356.39 844.946C1355.12 845.9 1353.57 846.634 1351.73 847.149ZM1366.82 842.418L1360.19 818.785L1365.59 817.27L1366.7 821.209L1366.94 821.14C1366.99 819.655 1367.44 818.396 1368.28 817.364C1369.12 816.319 1370.22 815.607 1371.58 815.227C1371.88 815.14 1372.23 815.059 1372.62 814.984C1373.02 814.895 1373.35 814.84 1373.62 814.82L1375.06 819.943C1374.8 819.927 1374.4 819.961 1373.87 820.043C1373.35 820.112 1372.85 820.213 1372.38 820.345C1371.37 820.63 1370.51 821.107 1369.83 821.775C1369.15 822.43 1368.69 823.207 1368.44 824.106C1368.19 825.005 1368.21 825.957 1368.49 826.962L1372.39 840.856L1366.82 842.418Z" fill="white"/>
<defs>
<filter id="filter0_d_1_10" x="300" y="53" width="1080" height="811" filterUnits="userSpaceOnUse" color-interpolation-filters="sRGB">
<feFlood flood-opacity="0" result="BackgroundImageFix"/>
<feColorMatrix in="SourceAlpha" type="matrix" values="0 0 0 0 0 0 0 0 0 0 0 0 0 0 0 0 0 0 127 0" result="hardAlpha"/>
<feOffset/>
<feGaussianBlur stdDeviation="60"/>
<feComposite in2="hardAlpha" operator="out"/>
<feColorMatrix type="matrix" values="0 0 0 0 1 0 0 0 0 1 0 0 0 0 1 0 0 0 0.23 0"/>
<feBlend mode="normal" in2="BackgroundImageFix" result="effect1_dropShadow_1_10"/>
<feBlend mode="normal" in="SourceGraphic" in2="effect1_dropShadow_1_10" result="shape"/>
</filter>
<filter id="filter1_b_1_10" x="-4" y="-4" width="1358" height="75" filterUnits="userSpaceOnUse" color-interpolation-filters="sRGB">
<feFlood flood-opacity="0" result="BackgroundImageFix"/>
<feGaussianBlur in="BackgroundImageFix" stdDeviation="2"/>
<feComposite in2="SourceAlpha" operator="in" result="effect1_backgroundBlur_1_10"/>
<feBlend mode="normal" in="SourceGraphic" in2="effect1_backgroundBlur_1_10" result="shape"/>
</filter>
<linearGradient id="paint0_linear_1_10" x1="675" y1="67" x2="675" y2="949" gradientUnits="userSpaceOnUse">
<stop stop-color="#000C28"/>
<stop offset="1" stop-color="#000001"/>
</linearGradient>
<linearGradient id="paint1_linear_1_10" x1="840" y1="173" x2="840" y2="744" gradientUnits="userSpaceOnUse">
<stop stop-color="#3A4255"/>
<stop offset="1" stop-color="#2D2E34"/>
</linearGradient>
<linearGradient id="paint2_linear_1_10" x1="1394" y1="917.223" x2="1034" y2="917.223" gradientUnits="userSpaceOnUse">
<stop stop-color="#D8B65C"/>
<stop offset="1" stop-color="#E1901A"/>
</linearGradient>
<clipPath id="clip0_1_10">
<rect width="196" height="50" fill="white" transform="translate(63 193)"/>
</clipPath>
</defs>
</svg>

